# Blender v2.77 (sub 0) OBJ File: ''
# www.blender.org
o Cylinder
v 0.000000 -0.050000 -0.050000
v 0.000000 0.050000 -0.050000
v 0.050000 -0.050000 0.000000
v 0.050000 0.050000 0.000000
v -0.000000 -0.050000 0.050000
v -0.000000 0.050000 0.050000
v -0.050000 -0.050000 -0.000000
v -0.050000 0.050000 -0.000000
v 0.085119 0.050000 0.000000
v 0.000000 0.050000 -0.085119
v -0.000000 0.050000 0.085119
v -0.085119 0.050000 -0.000000
v -0.000000 0.150000 0.000000
vt 0.8078 0.6167
vt 0.8078 0.8908
vt 0.6156 0.8908
vt 0.6156 0.6167
vt 0.8078 0.3425
vt 0.8078 0.6167
vt 0.6156 0.6167
vt 0.6156 0.3425
vt 0.2597 0.0707
vt 0.0675 0.0707
vt 0.0000 0.0000
vt 0.3272 0.0000
vt 0.1922 0.6850
vt 0.1922 0.9592
vt 0.0000 0.9592
vt 0.0000 0.6850
vt 0.5194 0.7258
vt 0.5194 1.0000
vt 0.3272 1.0000
vt 0.3272 0.7258
vt 0.8078 0.5437
vt 1.0000 0.3425
vt 1.0000 0.5437
vt 0.3057 0.3425
vt 0.3057 0.6850
vt 0.0000 0.5138
vt 0.0675 0.2718
vt 0.2597 0.2718
vt 0.3272 0.3425
vt 0.0000 0.3425
vt 0.9213 0.0000
vt 0.9213 0.3425
vt 0.6156 0.1713
vt 0.6156 0.7258
vt 0.3272 0.5642
vt 0.6156 0.3629
vt 0.3272 0.1616
vt 0.6156 0.0000
vn 0.7071 0.0000 -0.7071
vn 0.7071 0.0000 0.7071
vn 0.0000 -1.0000 0.0000
vn -0.7071 0.0000 0.7071
vn -0.7071 0.0000 -0.7071
vn -0.6058 0.5157 -0.6058
vn 0.6058 0.5157 0.6058
vn -0.6058 0.5157 0.6058
vn 0.6058 0.5157 -0.6058
s off
f 1/1/1 2/2/1 4/3/1 3/4/1
f 3/5/2 4/6/2 6/7/2 5/8/2
f 2/9/3 8/10/3 12/11/3 10/12/3
f 5/13/4 6/14/4 8/15/4 7/16/4
f 7/17/5 8/18/5 2/19/5 1/20/5
f 1/21/3 3/5/3 5/22/3 7/23/3
f 10/24/6 12/25/6 13/26/6
f 6/27/3 4/28/3 9/29/3 11/30/3
f 4/28/3 2/9/3 10/12/3 9/29/3
f 8/10/3 6/27/3 11/30/3 12/11/3
f 11/31/7 9/32/7 13/33/7
f 12/34/8 11/35/8 13/36/8
f 9/37/9 10/38/9 13/36/9
