# Blender v2.77 (sub 0) OBJ File: ''
# www.blender.org
o Cube.001
v -1.300000 -1.500000 4.300001
v -1.300000 -1.500000 4.500000
v -1.500000 -1.500000 4.500000
v -1.500000 -1.500000 4.300001
v -1.300000 1.500000 4.299999
v -1.500000 1.500000 4.299999
v -1.500000 1.500000 4.500000
v -1.300000 1.500000 4.500000
v 1.500000 1.300000 4.300000
v 1.499999 1.500000 4.300001
v 1.499999 1.500000 4.500000
v 1.500000 1.300000 4.500000
v -1.300000 1.300000 4.500000
v -1.500000 1.300000 4.500000
v -1.500000 1.300000 -4.300000
v -1.500000 1.500000 -4.300001
v -1.500000 1.500000 -4.500000
v -1.500000 1.300000 -4.500000
v -1.299999 -1.300000 -4.500000
v -1.299999 -1.500000 -4.500000
v -1.499999 -1.500000 -4.500000
v -1.499999 -1.300000 -4.500000
v -1.300000 1.500000 -4.500000
v -1.299999 1.300000 -4.500000
v -1.499999 -1.300000 -4.300000
v -1.300000 -1.300000 4.500000
v -1.500000 -1.300000 4.500000
v 1.500000 -1.300000 4.300000
v 1.500000 -1.300000 4.500000
v 1.500000 -1.500000 4.300001
v 1.500000 -1.500000 4.500000
v -1.499999 -1.500000 -4.300000
v 1.300000 1.300000 -4.500000
v 1.300000 1.300000 -4.300000
v -1.299999 1.300000 -4.300000
v 1.300000 -1.500000 4.500000
v 1.300000 -1.300000 4.500000
v 1.299999 1.300000 4.500000
v 1.299999 1.300000 4.300000
v 1.300000 -1.300000 4.300000
v 1.300001 1.500000 -4.500000
v 1.300000 -1.300000 -4.500000
v 1.300000 -1.500000 -4.500000
v 1.299999 1.500000 4.500000
v 1.299999 1.500000 4.300001
v 1.300000 -1.500000 4.300001
v 1.500000 -1.300000 -4.500000
v 1.500000 -1.500000 -4.500000
v 1.500001 1.500000 -4.500000
v 1.500000 1.300000 -4.500000
v 1.300001 1.500000 -4.300000
v 1.500001 1.500000 -4.300000
v 1.500000 -1.500000 -4.300000
v 1.300000 -1.500000 -4.300000
v -1.299999 -1.500000 -4.300000
v -1.300000 1.500000 -4.300001
v -1.500000 -1.300000 4.300000
v 1.500000 -1.300000 -4.300000
v 1.500000 1.300000 -4.300000
v -1.299999 -1.300000 -4.300000
v -1.500000 1.300000 4.299999
v 1.300000 -1.300000 -4.300000
v -1.300000 1.300000 4.299999
v -1.300000 -1.300000 4.300000
vt 0.3111 0.9778
vt 0.3333 0.9778
vt 0.3333 1.0000
vt 0.3111 1.0000
vt 0.3556 0.3556
vt 0.3333 0.3556
vt 0.3333 0.3333
vt 0.3556 0.3333
vt 0.0222 0.0222
vt 0.0000 0.0222
vt 0.0000 0.0000
vt 0.0222 0.0000
vt 0.6444 0.3111
vt 0.6667 0.3111
vt 0.6667 0.3333
vt 0.6444 0.3333
vt 0.3556 0.6889
vt 0.3333 0.6889
vt 0.3333 0.6667
vt 0.3556 0.6667
vt 0.9778 0.3111
vt 1.0000 0.3111
vt 1.0000 0.3333
vt 0.9778 0.3333
vt 0.6667 0.3111
vt 0.6889 0.3111
vt 0.6889 0.3333
vt 0.6667 0.3333
vt 0.6444 0.6889
vt 0.6444 0.6667
vt 0.3556 0.3111
vt 0.3556 0.3333
vt 0.3111 0.0222
vt 0.3111 0.0000
vt 0.3333 0.0222
vt 0.3333 0.0000
vt 0.3333 0.3111
vt 0.3333 0.3333
vt 0.6667 0.6889
vt 0.6667 0.6667
vt 0.9778 0.6667
vt 0.6889 0.6667
vt 0.6889 0.6444
vt 0.9778 0.6444
vt 0.3333 0.0222
vt 0.3556 0.0222
vt 0.7111 0.6667
vt 0.7111 0.9556
vt 0.6889 0.9556
vt 0.6889 0.6667
vt 0.6667 0.0222
vt 0.6889 0.0222
vt 0.9778 0.0222
vt 1.0000 0.0222
vt 0.6444 0.0222
vt 0.6667 0.0222
vt 0.6444 0.3556
vt 0.6444 0.3333
vt 0.3111 0.6889
vt 0.3333 0.6889
vt 0.3111 0.6667
vt 0.3333 0.6667
vt 0.6667 0.3556
vt 0.6667 0.3333
vt 0.6444 0.0000
vt 0.6667 0.0000
vt 0.9778 0.0000
vt 1.0000 0.0000
vt 0.6667 0.0000
vt 0.6889 0.0000
vt 0.3556 0.0000
vt 0.6667 0.6667
vt 0.6444 0.6667
vt 0.6444 0.6444
vt 0.6667 0.6444
vt 0.0000 0.6667
vt 0.0222 0.6667
vt 0.0222 0.6889
vt 0.0000 0.6889
vt 0.0222 0.9778
vt 0.0000 0.9778
vt 0.3556 0.6667
vt 0.3556 0.6444
vt 0.6667 0.9778
vt 0.6444 0.9778
vt 0.3333 0.3333
vt 0.3111 0.3333
vt 0.3111 0.3111
vt 0.3333 0.3111
vt 0.0222 0.3333
vt 0.0222 0.3111
vt 0.7778 0.6667
vt 0.7778 0.9556
vt 0.7556 0.9556
vt 0.7556 0.6667
vt 0.3556 0.9778
vt 0.3333 0.9778
vt 0.0000 0.3333
vt 0.0000 0.3111
vt 0.3333 0.6444
vt 0.0222 1.0000
vt 0.0000 1.0000
vt 0.3556 1.0000
vt 0.3333 1.0000
vt 0.6444 1.0000
vt 0.6667 1.0000
vt 0.0222 0.3333
vt 0.3111 0.3333
vt 0.3111 0.3556
vt 0.0222 0.3556
vt 0.6667 0.6444
vt 0.6667 0.3556
vt 0.6889 0.3556
vt 0.8000 0.6667
vt 0.8000 0.9556
vt 0.7778 0.9556
vt 0.7778 0.6667
vt 0.8000 0.9556
vt 0.8000 0.6667
vt 0.8222 0.6667
vt 0.8222 0.9556
vt 1.0000 0.3556
vt 1.0000 0.6444
vt 0.9778 0.3556
vt 0.6667 0.9556
vt 0.6667 0.6667
vt 0.6889 0.6667
vt 0.6889 0.9556
vt 0.3111 0.6667
vt 0.0222 0.6667
vt 0.0222 0.6444
vt 0.3111 0.6444
vt 0.6889 0.3333
vt 0.9778 0.3333
vt 0.8222 0.9556
vt 0.8222 0.6667
vt 0.8444 0.6667
vt 0.8444 0.9556
vt 0.0000 0.6444
vt 0.0000 0.3556
vt 0.7111 0.9556
vt 0.7111 0.6667
vt 0.7333 0.6667
vt 0.7333 0.9556
vt 0.3333 0.3556
vt 0.3333 0.6444
vt 0.7556 0.6667
vt 0.7556 0.9556
vt 0.7333 0.9556
vt 0.7333 0.6667
vn 0.0000 -1.0000 0.0000
vn 0.0000 1.0000 -0.0000
vn 1.0000 0.0000 0.0000
vn 0.0000 0.0000 1.0000
vn -1.0000 -0.0000 0.0000
vn 0.0000 -0.0000 -1.0000
s 1
f 1/1/1 2/2/1 3/3/1 4/4/1
f 5/5/2 6/6/2 7/7/2 8/8/2
f 9/9/3 10/10/3 11/11/3 12/12/3
f 13/13/4 8/14/4 7/15/4 14/16/4
f 15/17/5 16/18/5 17/19/5 18/20/5
f 19/21/6 20/22/6 21/23/6 22/24/6
f 23/25/6 24/26/6 18/27/6 17/28/6
f 25/29/5 15/17/5 18/20/5 22/30/5
f 26/31/4 13/13/4 14/16/4 27/32/4
f 28/33/3 9/9/3 12/12/3 29/34/3
f 30/35/3 28/33/3 29/34/3 31/36/3
f 2/37/4 26/31/4 27/32/4 3/38/4
f 32/39/5 25/29/5 22/30/5 21/40/5
f 24/26/6 19/21/6 22/24/6 18/27/6
f 24/41/1 33/42/1 34/43/1 35/44/1
f 36/45/4 37/46/4 26/31/4 2/37/4
f 37/47/5 38/48/5 39/49/5 40/50/5
f 41/51/6 33/52/6 24/26/6 23/25/6
f 42/53/6 43/54/6 20/22/6 19/21/6
f 38/55/4 44/56/4 8/14/4 13/13/4
f 45/57/2 5/5/2 8/8/2 44/58/2
f 46/59/1 36/60/1 2/2/1 1/1/1
f 30/61/1 31/62/1 36/60/1 46/59/1
f 10/63/2 45/57/2 44/58/2 11/64/2
f 12/65/4 11/66/4 44/56/4 38/55/4
f 47/67/6 48/68/6 43/54/6 42/53/6
f 49/69/6 50/70/6 33/52/6 41/51/6
f 29/71/4 12/65/4 38/55/4 37/46/4
f 31/36/4 29/71/4 37/46/4 36/45/4
f 50/70/6 47/67/6 42/53/6 33/52/6
f 49/72/2 41/73/2 51/74/2 52/75/2
f 48/76/1 53/77/1 54/78/1 43/79/1
f 43/79/1 54/78/1 55/80/1 20/81/1
f 41/73/2 23/82/2 56/83/2 51/74/2
f 4/84/5 57/85/5 25/29/5 32/39/5
f 48/86/3 47/87/3 58/88/3 53/89/3
f 47/87/3 50/90/3 59/91/3 58/88/3
f 15/92/4 25/93/4 60/94/4 35/95/4
f 61/96/5 6/97/5 16/18/5 15/17/5
f 50/90/3 49/98/3 52/99/3 59/91/3
f 23/82/2 17/19/2 16/100/2 56/83/2
f 20/81/1 55/80/1 32/101/1 21/102/1
f 14/103/5 7/104/5 6/97/5 61/96/5
f 27/105/5 14/103/5 61/96/5 57/85/5
f 3/106/5 27/105/5 57/85/5 4/84/5
f 52/75/2 51/74/2 45/57/2 10/63/2
f 53/77/1 30/61/1 46/59/1 54/78/1
f 54/78/1 46/59/1 1/1/1 55/80/1
f 51/74/2 56/83/2 5/5/2 45/57/2
f 53/89/3 58/88/3 28/33/3 30/35/3
f 28/107/2 58/108/2 62/109/2 40/110/2
f 59/91/3 52/99/3 10/10/3 9/9/3
f 56/83/2 16/100/2 6/6/2 5/5/2
f 55/80/1 1/1/1 4/4/1 32/101/1
f 59/111/1 9/112/1 39/113/1 34/43/1
f 9/114/6 28/115/6 40/116/6 39/117/6
f 58/118/4 59/119/4 34/120/4 62/121/4
f 61/122/1 15/123/1 35/44/1 63/124/1
f 57/125/6 61/126/6 63/127/6 64/128/6
f 25/129/2 57/130/2 64/131/2 60/132/2
f 63/124/1 35/44/1 34/43/1 39/113/1
f 38/133/1 13/134/1 63/124/1 39/113/1
f 13/135/3 26/136/3 64/137/3 63/138/3
f 26/139/2 37/140/2 40/110/2 64/131/2
f 64/131/2 40/110/2 62/109/2 60/132/2
f 33/141/5 42/142/5 62/143/5 34/144/5
f 42/145/2 19/146/2 60/132/2 62/109/2
f 19/147/3 24/148/3 35/149/3 60/150/3
