# Blender v2.77 (sub 0) OBJ File: 'WhiteBoxBig.blend'
# www.blender.org
o Inside_Cube.001
v 30.000000 -5.000000 -68.999992
v 30.000013 5.000000 -68.999962
v 30.000002 -5.000000 -20.999989
v 30.000000 5.000000 -20.999958
v 24.000013 5.000002 -68.999962
v 24.000002 -4.999998 -20.999989
v 24.000000 5.000002 -20.999958
v 24.000000 -4.999998 -68.999992
v 24.000000 -12.999974 -97.000000
v -30.000000 -5.000000 -68.999992
v -30.000013 5.000000 -68.999962
v -30.000002 -5.000000 -20.999989
v -30.000000 5.000000 -20.999958
v -24.000013 5.000002 -68.999962
v -24.000002 -4.999998 -20.999989
v -24.000000 5.000002 -20.999958
v -24.000000 -4.999998 -68.999992
v 24.000000 -12.999974 7.000011
v -24.000002 -12.999974 7.000011
v -24.000000 -12.999974 -97.000000
v -24.000013 13.000027 -96.999969
v -24.000000 13.000027 7.000042
v 24.000000 13.000027 -96.999969
v 24.000000 13.000027 7.000042
vt 0.3816 1.0000
vt 0.3421 0.6842
vt 0.3816 0.6842
vt 0.5000 0.7500
vt 0.5395 0.6842
vt 0.5395 0.7500
vt 0.6316 0.7500
vt 0.6711 0.6842
vt 0.6711 0.7500
vt 0.5000 1.0000
vt 0.4605 0.6842
vt 0.5000 0.6842
vt 0.6842 0.5000
vt 0.8026 0.6842
vt 0.6316 0.6842
vt 0.6316 0.0000
vt 0.6842 0.1842
vt 0.7500 0.1842
vt 0.7500 0.5000
vt 0.8026 0.0000
vt 0.4605 0.6842
vt 0.4211 1.0000
vt 0.4211 0.6842
vt 0.5789 0.7500
vt 0.5395 0.6842
vt 0.5789 0.6842
vt 0.6184 0.7500
vt 0.5789 0.6842
vt 0.6184 0.6842
vt 0.4211 0.6842
vt 0.3816 1.0000
vt 0.3816 0.6842
vt 0.9211 0.5000
vt 0.8026 0.6842
vt 0.8553 0.5000
vt 0.9737 0.0000
vt 0.9211 0.1842
vt 0.8553 0.1842
vt 0.3158 0.6842
vt 0.3158 0.0000
vt 0.3158 0.0000
vt 0.0000 0.6842
vt 0.0000 0.0000
vt 0.1711 0.6842
vt 0.3421 1.0000
vt 0.1711 1.0000
vt 0.1711 0.6842
vt 0.0000 1.0000
vt 0.0000 0.6842
vt 0.3421 1.0000
vt 0.5000 0.6842
vt 0.6316 0.6842
vt 0.4605 1.0000
vt 0.4605 1.0000
vt 0.5395 0.7500
vt 0.5789 0.7500
vt 0.4211 1.0000
vt 0.9737 0.6842
vt 0.8026 0.0000
vt 0.3158 0.6842
vt 0.3421 0.6842
vt 0.1711 1.0000
vn -0.0000 -1.0000 0.0000
vn 0.0000 -0.0000 1.0000
vn -0.0000 0.0000 -1.0000
vn 0.0000 1.0000 0.0000
vn -1.0000 0.0000 0.0000
vn 1.0000 0.0000 0.0000
s off
f 4/1/1 5/2/1 2/3/1
f 1/4/2 5/5/2 8/6/2
f 4/7/3 6/8/3 7/9/3
f 1/10/4 6/11/4 3/12/4
f 8/13/5 23/14/5 9/15/5
f 8/13/5 18/16/5 6/17/5
f 7/18/5 23/14/5 5/19/5
f 7/18/5 18/16/5 24/20/5
f 14/21/1 13/22/1 11/23/1
f 10/24/2 14/25/2 11/26/2
f 13/27/3 15/28/3 12/29/3
f 15/30/4 10/31/4 12/32/4
f 17/33/6 21/34/6 14/35/6
f 19/36/6 17/33/6 15/37/6
f 21/34/6 16/38/6 14/35/6
f 16/38/6 19/36/6 15/37/6
f 18/16/4 20/39/4 19/40/4
f 23/41/1 22/42/1 21/43/1
f 24/44/3 19/45/3 22/46/3
f 20/47/2 23/48/2 21/49/2
f 4/1/1 7/50/1 5/2/1
f 1/4/2 2/51/2 5/5/2
f 4/7/3 3/52/3 6/8/3
f 1/10/4 8/53/4 6/11/4
f 8/13/5 5/19/5 23/14/5
f 8/13/5 9/15/5 18/16/5
f 7/18/5 24/20/5 23/14/5
f 7/18/5 6/17/5 18/16/5
f 14/21/1 16/54/1 13/22/1
f 10/24/2 17/55/2 14/25/2
f 13/27/3 16/56/3 15/28/3
f 15/30/4 17/57/4 10/31/4
f 17/33/6 20/58/6 21/34/6
f 19/36/6 20/58/6 17/33/6
f 21/34/6 22/59/6 16/38/6
f 16/38/6 22/59/6 19/36/6
f 18/16/4 9/15/4 20/39/4
f 23/41/1 24/60/1 22/42/1
f 24/44/3 18/61/3 19/45/3
f 20/47/2 9/62/2 23/48/2
o Outside_Cube
v 30.000000 -5.000000 -68.999992
v 30.000000 -16.000000 100.000000
v 30.000013 5.000000 -68.999962
v 29.999983 16.000000 100.000061
v 30.000002 -5.000000 -20.999989
v 30.000000 5.000000 -20.999958
v 30.000000 -16.000000 -80.000000
v 30.000015 16.000000 -79.999954
v 30.000000 -16.000000 -10.000000
v 30.000000 16.000000 -9.999947
v 30.000013 -15.999974 -100.000000
v 30.000029 16.000027 -99.999954
v -30.000000 -5.000000 -68.999992
v -30.000013 5.000000 -68.999962
v -30.000002 -5.000000 -20.999989
v -30.000000 5.000000 -20.999958
v -30.000029 -16.000000 -79.999992
v -30.000029 -16.000000 100.000008
v -30.000029 16.000000 -79.999954
v -30.000029 16.000000 100.000038
v -30.000029 16.000000 -9.999962
v -30.000029 -16.000000 -9.999992
v -30.000029 16.000027 -99.999954
v -30.000029 -15.999974 -99.999992
vt 0.8519 0.4167
vt 0.7037 0.9259
vt 0.7037 0.4167
vt 0.2778 0.5093
vt 0.5556 0.8333
vt 0.2778 0.8333
vt 0.2778 0.8333
vt 0.0000 0.5093
vt 0.2778 0.5093
vt 0.0000 0.9259
vt 0.0000 0.8333
vt 1.0000 0.2778
vt 0.8519 0.5556
vt 0.8519 0.2778
vt 0.2778 0.0000
vt 0.2778 0.0000
vt 0.5556 0.5093
vt 0.7546 0.1435
vt 0.8519 0.0926
vt 0.8009 0.1435
vt 0.7037 0.0926
vt 0.8009 0.3657
vt 0.7546 0.3657
vt 0.8519 0.2778
vt 1.0000 0.0000
vt 1.0000 0.2778
vt 0.5556 0.9259
vt 0.2778 0.9259
vt 0.8519 0.0000
vt 0.5556 0.0000
vt 0.7037 0.5093
vt 0.7037 0.8333
vt 0.6065 0.7824
vt 0.6528 0.7824
vt 0.6065 0.5602
vt 0.6528 0.5602
vt 0.8519 0.9259
vt 0.2778 0.9259
vt 1.0000 0.5556
vt 0.0000 0.0000
vt 0.8519 0.0000
vt 0.7037 0.0000
vt 0.7037 0.0000
vt 0.7037 0.9259
vn 1.0000 0.0000 0.0000
vn 0.0000 -1.0000 0.0000
vn 0.0000 1.0000 0.0000
vn 0.0000 -0.0000 1.0000
vn 0.0000 0.0000 -1.0000
vn -1.0000 0.0000 0.0000
s off
f 34/63/7 26/64/7 33/65/7
f 33/66/8 41/67/8 31/68/8
f 32/69/9 45/70/9 34/71/9
f 32/69/9 47/72/9 43/73/9
f 28/74/10 42/75/10 26/76/10
f 45/70/9 28/77/9 34/71/9
f 26/78/8 46/79/8 33/66/8
f 25/80/7 32/81/7 27/82/7
f 25/80/7 33/65/7 31/83/7
f 30/84/7 32/81/7 34/63/7
f 30/84/7 33/65/7 29/85/7
f 35/86/11 47/87/11 36/88/11
f 31/68/8 48/89/8 35/90/8
f 31/83/7 36/91/7 32/81/7
f 42/92/12 45/93/12 46/79/12
f 43/94/12 37/95/12 38/96/12
f 37/95/12 46/79/12 39/97/12
f 45/93/12 38/96/12 40/98/12
f 46/79/12 40/98/12 39/97/12
f 43/94/12 48/89/12 41/67/12
f 34/63/7 28/99/7 26/64/7
f 33/66/8 46/79/8 41/67/8
f 32/69/9 43/73/9 45/70/9
f 32/69/9 36/100/9 47/72/9
f 28/74/10 44/101/10 42/75/10
f 45/70/9 44/102/9 28/77/9
f 26/78/8 42/92/8 46/79/8
f 25/80/7 31/83/7 32/81/7
f 25/80/7 29/85/7 33/65/7
f 30/84/7 27/82/7 32/81/7
f 30/84/7 34/63/7 33/65/7
f 35/86/11 48/103/11 47/87/11
f 31/68/8 41/67/8 48/89/8
f 31/83/7 35/104/7 36/91/7
f 42/92/12 44/105/12 45/93/12
f 43/94/12 41/67/12 37/95/12
f 37/95/12 41/67/12 46/79/12
f 45/93/12 43/94/12 38/96/12
f 46/79/12 45/93/12 40/98/12
f 43/94/12 47/106/12 48/89/12
