# Blender v2.77 (sub 0) OBJ File: ''
# www.blender.org
o Cube
v 20.000000 -1.000000 -20.000000
v 20.000000 -1.000000 20.000000
v -20.000002 -1.000000 19.999996
v 18.999989 1.000000 19.000011
v -19.999992 -1.000000 -20.000008
v 19.000010 1.000000 -18.999990
v 5.000000 -1.000000 19.999998
v 4.000006 1.000000 -18.999996
v 5.000004 -1.000000 -20.000004
v -5.000000 -1.000000 19.999998
v -5.000009 1.000000 19.000002
v -4.999996 -1.000000 -20.000004
v 5.000004 -0.999809 -70.000000
v 4.000006 1.000187 -69.000000
v -3.999994 1.000187 -69.000000
v -4.999996 -0.999809 -70.000000
v -5.000010 1.000000 20.000002
v -20.000008 1.000000 19.999992
v -4.999994 1.000000 -19.999996
v -19.999998 1.000000 -20.000000
v 20.000010 1.000000 -19.999990
v 19.999989 1.000000 20.000011
v 4.999990 1.000000 20.000002
v 5.000006 1.000000 -19.999996
v 5.000006 1.000191 -70.000000
v -4.999994 1.000191 -70.000000
v 4.999991 1.000000 19.000002
v -3.999994 1.000000 -18.999996
v -19.000008 1.000000 18.999992
v -18.999998 1.000000 -19.000000
v -5.000010 3.000000 20.000004
v -20.000008 3.000000 19.999994
v -4.999994 3.000000 -19.999994
v -19.999998 3.000000 -19.999998
v 20.000010 3.000000 -19.999989
v 19.999989 3.000000 20.000013
v 4.999990 3.000000 20.000004
v 5.000006 3.000000 -19.999994
v 5.000006 3.000191 -70.000000
v -4.999994 3.000191 -70.000000
v -5.000009 3.000000 19.000004
v -19.000008 3.000000 18.999994
v -3.999994 3.000000 -18.999994
v -18.999998 3.000000 -18.999998
v 19.000010 3.000000 -18.999989
v 18.999989 3.000000 19.000013
v 4.999991 3.000000 19.000004
v 4.000006 3.000000 -18.999994
v 4.000006 3.000187 -69.000000
v -3.999994 3.000187 -69.000000
vt 0.4297 0.3937
vt 0.3125 0.7087
vt 0.3125 0.3937
vt 0.9687 0.3150
vt 0.9844 0.0000
vt 0.9844 0.3150
vt 0.9687 0.4331
vt 0.9844 0.3150
vt 0.9844 0.4331
vt 0.9844 0.9449
vt 0.9687 0.6299
vt 0.9844 0.6299
vt 0.7187 0.7008
vt 0.7344 0.8189
vt 0.7187 0.8189
vt 0.7031 0.7008
vt 0.6875 0.8189
vt 0.6875 0.7008
vt 0.9687 0.6299
vt 0.9844 0.5118
vt 0.9844 0.6299
vt 0.6250 0.7087
vt 0.5078 0.3937
vt 0.6250 0.3937
vt 0.5078 0.0000
vt 0.9687 0.5118
vt 0.5078 0.7087
vt 0.0156 0.7087
vt 0.0000 0.7874
vt 0.0000 0.7087
vt 0.9375 0.3937
vt 0.9219 0.7874
vt 0.9219 0.3937
vt 0.9531 0.0000
vt 0.9375 0.3937
vt 0.9375 0.0000
vt 0.9844 0.0079
vt 1.0000 0.0000
vt 1.0000 0.0079
vt 0.6719 0.7008
vt 0.6562 1.0000
vt 0.6406 0.8898
vt 0.6562 0.8898
vt 0.9531 0.4331
vt 0.7031 0.7008
vt 0.8047 0.0079
vt 0.7344 0.0000
vt 0.8125 0.0000
vt 0.9531 0.5118
vt 0.9219 0.0000
vt 0.6406 0.8110
vt 0.6562 0.8110
vt 0.9375 0.7874
vt 0.9531 0.3937
vt 0.9531 0.7874
vt 0.9219 0.4016
vt 0.8125 0.7008
vt 0.8047 0.4016
vt 0.6250 0.4016
vt 0.7344 0.7008
vt 0.6250 0.7008
vt 0.7422 0.4016
vt 0.3047 0.7008
vt 0.1953 0.7087
vt 0.1953 0.7008
vt 0.3047 0.4016
vt 0.1953 0.3937
vt 0.3125 0.3937
vt 0.0078 0.4016
vt 0.0000 0.7087
vt 0.0000 0.3937
vt 0.3125 0.7087
vt 0.0078 0.7008
vt 0.1172 0.7087
vt 0.1172 0.3937
vt 0.1250 0.4016
vt 0.1172 0.7008
vt 0.0156 0.7244
vt 0.0234 0.7087
vt 0.0234 0.7244
vt 0.1875 0.0079
vt 0.1875 0.4016
vt 0.1250 0.0079
vt 0.1172 0.0000
vt 1.0000 0.7953
vt 0.9844 0.4016
vt 1.0000 0.4016
vt 0.7500 0.8189
vt 0.7344 0.7008
vt 0.7500 0.7008
vt 0.9844 0.4016
vt 0.6562 0.7008
vt 0.6719 1.0000
vt 0.6562 1.0000
vt 0.6406 1.0000
vt 0.6250 0.7008
vt 0.6406 0.7008
vt 0.9531 0.0000
vt 0.9687 0.0000
vt 0.6406 0.7008
vt 0.9687 0.9449
vt 0.9531 0.6299
vt 0.7656 0.8189
vt 0.7500 0.7008
vt 0.7656 0.7008
vt 0.9531 0.3150
vt 0.9687 0.3150
vt 0.4297 0.7087
vt 0.7344 0.7008
vt 0.7031 0.8189
vt 0.4297 0.0000
vt 0.0156 0.7874
vt 0.9531 0.3937
vt 0.9844 0.0000
vt 0.6719 0.8189
vt 0.6406 1.0000
vt 0.7031 0.8189
vt 0.7422 0.0079
vt 0.9531 0.6299
vt 0.9219 0.3937
vt 0.9219 0.7008
vt 0.0156 0.7087
vt 0.1953 0.0000
vt 0.9844 0.7953
vt 0.7344 0.8189
vt 1.0000 0.4016
vt 0.6719 0.7008
vt 0.6250 1.0000
vt 0.9531 0.3150
vt 0.9531 0.9449
vt 0.7500 0.8189
vn 0.0000 -1.0000 0.0000
vn 1.0000 -0.0000 0.0000
vn 0.0000 -0.0000 1.0000
vn -1.0000 -0.0000 -0.0000
vn 0.0000 0.0000 -1.0000
vn -0.7071 0.0000 -0.7071
vn 0.0000 1.0000 0.0000
vn 0.7071 0.0000 -0.7071
s off
f 12/1/1 3/2/1 5/3/1
f 21/4/2 2/5/2 1/6/2
f 17/7/3 3/8/3 10/9/3
f 3/10/4 20/11/4 5/12/4
f 19/13/5 5/14/5 20/15/5
f 1/16/5 24/17/5 21/18/5
f 22/19/3 7/20/3 2/21/3
f 2/22/1 9/23/1 1/24/1
f 12/1/1 13/25/1 9/23/1
f 23/26/3 10/9/3 7/20/3
f 7/27/1 12/1/1 9/23/1
f 13/28/5 26/29/5 25/30/5
f 19/31/4 16/32/4 12/33/4
f 9/34/2 25/35/2 24/36/2
f 49/37/6 25/38/6 14/39/6
f 24/17/5 35/40/5 21/18/5
f 29/41/5 41/42/5 11/43/5
f 23/26/3 31/44/3 17/7/3
f 20/15/5 33/45/5 19/13/5
f 15/46/7 25/47/7 26/48/7
f 22/19/3 37/49/3 23/26/3
f 25/35/2 38/50/2 24/36/2
f 11/43/5 47/51/5 27/52/5
f 26/53/4 33/54/4 40/55/4
f 30/56/7 11/57/7 28/58/7
f 6/59/7 27/60/7 4/61/7
f 8/62/7 11/57/7 27/60/7
f 8/62/7 15/46/7 28/58/7
f 42/63/7 31/64/7 41/65/7
f 44/66/7 33/67/7 34/68/7
f 45/69/7 36/70/7 35/71/7
f 44/66/7 32/72/7 42/63/7
f 46/73/7 37/74/7 36/70/7
f 45/69/7 38/75/7 48/76/7
f 41/65/7 37/74/7 47/77/7
f 26/78/8 50/79/8 15/80/8
f 50/81/7 33/67/7 43/82/7
f 49/83/7 38/75/7 39/84/7
f 15/85/2 43/86/2 28/87/2
f 28/88/3 44/89/3 30/90/3
f 14/39/4 48/91/4 49/37/4
f 4/92/4 45/93/4 6/94/4
f 30/95/2 42/96/2 29/97/2
f 21/4/2 36/98/2 22/99/2
f 27/52/5 46/100/5 4/92/5
f 18/101/4 34/102/4 20/11/4
f 6/103/3 48/104/3 8/105/3
f 17/7/3 32/106/3 18/107/3
f 12/1/1 10/108/1 3/2/1
f 21/4/2 22/99/2 2/5/2
f 17/7/3 18/107/3 3/8/3
f 3/10/4 18/101/4 20/11/4
f 19/13/5 12/109/5 5/14/5
f 1/16/5 9/110/5 24/17/5
f 22/19/3 23/26/3 7/20/3
f 2/22/1 7/27/1 9/23/1
f 12/1/1 16/111/1 13/25/1
f 23/26/3 17/7/3 10/9/3
f 7/27/1 10/108/1 12/1/1
f 13/28/5 16/112/5 26/29/5
f 19/31/4 26/53/4 16/32/4
f 9/34/2 13/113/2 25/35/2
f 49/37/6 39/114/6 25/38/6
f 24/17/5 38/115/5 35/40/5
f 29/41/5 42/116/5 41/42/5
f 23/26/3 37/49/3 31/44/3
f 20/15/5 34/117/5 33/45/5
f 15/46/7 14/118/7 25/47/7
f 22/19/3 36/119/3 37/49/3
f 25/35/2 39/120/2 38/50/2
f 11/43/5 41/42/5 47/51/5
f 26/53/4 19/31/4 33/54/4
f 30/56/7 29/121/7 11/57/7
f 6/59/7 8/62/7 27/60/7
f 8/62/7 28/58/7 11/57/7
f 8/62/7 14/118/7 15/46/7
f 42/63/7 32/72/7 31/64/7
f 44/66/7 43/82/7 33/67/7
f 45/69/7 46/73/7 36/70/7
f 44/66/7 34/68/7 32/72/7
f 46/73/7 47/77/7 37/74/7
f 45/69/7 35/71/7 38/75/7
f 41/65/7 31/64/7 37/74/7
f 26/78/8 40/122/8 50/79/8
f 50/81/7 40/123/7 33/67/7
f 49/83/7 48/76/7 38/75/7
f 15/85/2 50/124/2 43/86/2
f 28/88/3 43/125/3 44/89/3
f 14/39/4 8/126/4 48/91/4
f 4/92/4 46/127/4 45/93/4
f 30/95/2 44/128/2 42/96/2
f 21/4/2 35/129/2 36/98/2
f 27/52/5 47/51/5 46/100/5
f 18/101/4 32/130/4 34/102/4
f 6/103/3 45/131/3 48/104/3
f 17/7/3 31/44/3 32/106/3
