# Blender v2.77 (sub 0) OBJ File: ''
# www.blender.org
o Cube_Cube.001
v -3.000000 -1.500000 -8.000000
v -3.000000 1.500000 -8.000000
v -3.500000 -2.000000 5.000000
v -3.500000 2.000000 5.000000
v -4.500000 0.000000 5.000000
v -3.000000 0.000000 -8.000000
v -1.500000 -2.000000 5.000000
v -1.500000 -1.500000 -8.000000
v -1.500000 1.500000 -8.000000
v -1.500000 -2.000000 8.500000
v -1.500000 2.000000 5.000000
v -1.500000 -0.500000 5.000000
v -1.500000 -2.000000 -8.000000
v -3.500000 -2.000000 -8.000000
v -1.500000 2.000000 -8.000000
v -4.500000 0.000000 -8.000000
v -3.500000 2.000000 -8.000000
v -1.500000 -0.500000 8.500000
v 0.000000 -2.000000 -8.000000
v 0.000000 -2.000000 5.000000
v 0.000000 1.500000 -8.000000
v 3.000000 -1.500000 -8.000000
v 3.000000 1.500000 -8.000000
v 3.500000 -2.000000 5.000000
v 3.500000 2.000000 5.000000
v 4.500000 0.000000 5.000000
v 3.000000 0.000000 -8.000000
v 1.500000 -2.000000 5.000000
v 1.500000 -1.500000 -8.000000
v 1.500000 1.500000 -8.000000
v 1.500000 -2.000000 8.500000
v 0.000000 -2.000000 8.500000
v 1.500000 2.000000 5.000000
v 1.500000 -0.500000 5.000000
v 0.000000 2.000000 5.000000
v 0.000000 -0.500000 8.500000
v 1.500000 -2.000000 -8.000000
v 3.500000 -2.000000 -8.000000
v 1.500000 2.000000 -8.000000
v 0.000000 2.000000 -8.000000
v 4.500000 0.000000 -8.000000
v 3.500000 2.000000 -8.000000
v 0.000000 -1.500000 -8.000000
v 1.500000 -0.500000 8.500000
vt 0.5081 0.0000
vt 0.5081 0.7879
vt 0.3851 0.7879
vt 0.3851 0.0000
vt 0.9180 0.3636
vt 0.6721 0.3939
vt 0.7540 0.2727
vt 0.9180 0.2727
vt 0.1408 0.7879
vt 0.1407 0.0000
vt 0.3192 0.0000
vt 0.3192 0.7879
vt 0.3568 0.0000
vt 0.3568 0.7879
vt 0.0000 0.7879
vt 0.0000 0.0000
vt 0.9180 0.5152
vt 0.7540 0.5152
vt 0.3851 0.0000
vt 0.3851 0.7879
vt 0.2372 0.7879
vt 0.3568 1.0000
vt 0.2372 1.0000
vt 0.6721 0.0000
vt 0.6721 0.7879
vt 0.6721 0.6061
vt 0.6721 0.5152
vt 0.7950 0.5152
vt 0.7950 0.6061
vt 0.3851 1.0000
vt 0.7130 0.0909
vt 0.7130 0.1818
vt 0.6721 0.1818
vt 0.6721 0.0606
vt 0.9590 0.2727
vt 0.9590 0.1818
vt 1.0000 0.1818
vt 1.0000 0.2727
vt 0.8360 0.0909
vt 0.8360 0.0000
vt 0.9590 0.0909
vt 1.0000 0.0606
vt 0.7130 0.2727
vt 0.6721 0.2727
vt 0.5081 0.0000
vt 0.5081 0.7879
vt 0.9180 0.3636
vt 0.9180 0.2727
vt 0.7540 0.2727
vt 0.6721 0.3939
vt 0.1408 0.7879
vt 0.3192 0.7879
vt 0.3192 0.0000
vt 0.1407 0.0000
vt 0.3568 0.0000
vt 0.3568 0.7879
vt 0.0000 0.7879
vt 0.0000 0.0000
vt 0.9180 0.5152
vt 0.7540 0.5152
vt 0.2372 0.7879
vt 0.2372 1.0000
vt 0.3568 1.0000
vt 0.6721 0.0000
vt 0.6721 0.7879
vt 0.7950 0.5152
vt 0.6721 0.5152
vt 0.7130 0.0909
vt 0.6721 0.0606
vt 0.6721 0.1818
vt 0.7130 0.1818
vt 1.0000 0.1818
vt 0.9590 0.1818
vt 0.8360 0.0909
vt 0.8360 0.0000
vt 0.9590 0.0909
vt 1.0000 0.0606
vn 0.0000 1.0000 0.0000
vn 0.0000 0.0000 1.0000
vn -0.8944 -0.4472 0.0000
vn 0.0000 -1.0000 0.0000
vn -0.8944 0.4472 0.0000
vn -1.0000 0.0000 0.0000
vn 0.0000 0.0000 -1.0000
vn 0.8944 -0.4472 0.0000
vn 0.8944 0.4472 0.0000
vn 1.0000 0.0000 0.0000
s off
f 15/1/1 11/2/1 35/3/1 40/4/1
f 12/5/2 5/6/2 3/7/2 7/8/2
f 5/9/3 16/10/3 14/11/3 3/12/3
f 13/13/4 7/14/4 3/12/4 14/11/4
f 4/15/5 17/16/5 16/10/5 5/9/5
f 11/17/2 4/18/2 5/6/2 12/5/2
f 19/19/4 20/20/4 7/14/4 13/13/4
f 12/21/6 7/14/6 10/22/6 18/23/6
f 17/24/1 4/25/1 11/2/1 15/1/1
f 36/26/2 18/27/2 10/28/2 32/29/2
f 7/14/4 20/20/4 32/30/4 10/22/4
f 1/31/7 8/32/7 13/33/7 14/34/7
f 21/35/7 9/36/7 15/37/7 40/38/7
f 6/39/7 1/31/7 14/34/7 16/40/7
f 2/41/7 6/39/7 16/40/7 17/42/7
f 8/32/7 43/43/7 19/44/7 13/33/7
f 9/36/7 2/41/7 17/42/7 15/37/7
f 39/45/1 40/4/1 35/3/1 33/46/1
f 34/47/2 28/48/2 24/49/2 26/50/2
f 26/51/8 24/52/8 38/53/8 41/54/8
f 37/55/4 38/53/4 24/52/4 28/56/4
f 25/57/9 26/51/9 41/54/9 42/58/9
f 33/59/2 34/47/2 26/50/2 25/60/2
f 19/19/4 37/55/4 28/56/4 20/20/4
f 34/61/10 44/62/10 31/63/10 28/56/10
f 42/64/1 39/45/1 33/46/1 25/65/1
f 36/26/2 32/29/2 31/66/2 44/67/2
f 28/56/4 31/63/4 32/30/4 20/20/4
f 22/68/7 38/69/7 37/70/7 29/71/7
f 21/35/7 40/38/7 39/72/7 30/73/7
f 27/74/7 41/75/7 38/69/7 22/68/7
f 23/76/7 42/77/7 41/75/7 27/74/7
f 29/71/7 37/70/7 19/44/7 43/43/7
f 30/73/7 39/72/7 42/77/7 23/76/7
