# Blender v2.77 (sub 0) OBJ File: ''
# www.blender.org
o Inside_Cube
v -1.000000 -1.500000 8.000000
v -1.000000 -1.500000 -7.500000
v -3.000000 1.500000 -8.000000
v -1.000000 -1.500000 4.000000
v -1.000000 1.500000 3.999996
v -3.000000 -1.500000 4.000000
v -3.000000 -1.500000 -7.500000
v -1.000000 1.500000 -8.000000
v -3.000000 1.500000 3.999996
v -1.000000 -0.500000 8.000000
v -1.000000 0.000000 4.000000
v -3.000000 0.000000 -7.500000
v -4.000000 0.000000 4.000000
v -1.000000 -1.500000 5.000000
v -1.000000 1.500000 4.999996
v -1.000000 -0.500000 5.000000
v -1.500000 -0.500000 5.000000
v -1.500000 -0.500000 8.500000
v -1.500000 2.000000 5.000000
v -3.000001 -0.000000 -7.999995
v -0.999999 1.500000 -7.500005
v -3.000001 -1.500000 -7.999995
v -2.999999 1.500000 -7.500005
v -4.000000 0.000000 -7.500000
v -1.000001 -1.500000 -7.999995
v 1.000000 -1.500000 8.000000
v 1.000000 -1.500000 -7.500000
v 3.000000 1.500000 -8.000000
v 1.000000 -1.500000 4.000000
v 1.000000 1.500000 3.999996
v 3.000000 -1.500000 4.000000
v 3.000000 -1.500000 -7.500000
v 1.000000 1.500000 -8.000000
v 3.000000 1.500000 3.999996
v 1.000000 -0.500000 8.000000
v 1.000000 0.000000 4.000000
v 3.000000 0.000000 -7.500000
v 4.000000 0.000000 4.000000
v 1.000000 -1.500000 5.000000
v 1.000000 1.500000 4.999996
v 1.000000 -0.500000 5.000000
v 0.000000 -1.500000 -7.499998
v 0.000000 -1.500000 8.000003
v 1.500000 -0.500000 5.000000
v 1.500000 -0.500000 8.500000
v 1.500000 2.000000 5.000000
v 0.000000 -1.500000 4.000002
v 0.000000 -0.500000 8.000003
v 0.000000 -1.500000 5.000003
v 0.000000 -0.500000 8.500003
v 0.000000 -1.500000 -7.999993
v 0.000000 1.500000 4.000001
v 0.000000 1.500000 5.000000
v 0.000000 2.000000 5.000000
v 3.000001 -0.000000 -7.999995
v 0.999999 1.500000 -7.500005
v 3.000001 -1.500000 -7.999995
v 2.999999 1.500000 -7.500005
v 4.000000 0.000000 -7.500000
v 1.000001 -1.500000 -7.999995
v 0.000000 1.500000 -7.499997
v 0.000000 1.500000 -7.999992
vt 0.2400 0.7812
vt 0.3200 0.7813
vt 0.3200 0.8125
vt 0.2400 0.8125
vt 0.9600 0.4375
vt 0.8000 0.4375
vt 0.7200 0.3438
vt 0.9600 0.3438
vt 0.8000 0.0625
vt 0.8400 0.0000
vt 0.9600 0.0000
vt 0.9600 0.0625
vt 0.8400 0.6875
vt 0.9200 0.6875
vt 0.9200 0.7813
vt 0.8000 0.2500
vt 0.9600 0.2500
vt 0.1600 0.9688
vt 0.0000 0.9688
vt 0.0000 0.2500
vt 0.1600 0.2500
vt 0.9200 0.5938
vt 0.7200 0.0625
vt 0.7200 0.0000
vt 0.7200 0.2500
vt 0.8000 0.2500
vt 0.9200 0.4688
vt 0.9600 0.4375
vt 0.9600 0.5938
vt 0.9200 0.5938
vt 0.7600 0.6563
vt 0.7200 0.6563
vt 0.7200 0.4375
vt 0.7600 0.4688
vt 0.8400 0.4688
vt 0.8400 0.4375
vt 0.8400 0.4375
vt 0.8400 0.4688
vt 0.1600 0.0000
vt 0.2400 0.0000
vt 0.2400 0.1875
vt 0.1600 0.1875
vt 0.2400 0.2500
vt 0.8000 0.7188
vt 0.7200 0.7188
vt 0.7200 0.6563
vt 0.8000 0.6563
vt 0.1600 1.0000
vt 0.0000 1.0000
vt 0.3200 0.0000
vt 0.3200 0.0625
vt 0.2400 0.0625
vt 0.2400 0.0000
vt 0.9600 0.0938
vt 0.9600 0.0000
vt 1.0000 0.0000
vt 1.0000 0.0938
vt 0.2400 0.9688
vt 0.4800 0.7188
vt 0.4800 0.0000
vt 0.6000 0.0000
vt 0.6000 0.7188
vt 0.9600 0.1875
vt 1.0000 0.1875
vt 0.7200 0.0000
vt 0.7200 0.7188
vt 0.4800 0.0625
vt 0.4800 0.7813
vt 0.2400 1.0000
vt 0.4800 0.8125
vt 0.3200 0.8125
vt 0.3200 0.7813
vt 0.9600 0.4375
vt 0.9600 0.3438
vt 0.7200 0.3438
vt 0.8000 0.4375
vt 0.8000 0.0625
vt 0.9600 0.0625
vt 0.9600 0.0000
vt 0.8400 0.0000
vt 0.8400 0.6875
vt 0.9200 0.7813
vt 0.9200 0.6875
vt 0.9600 0.2500
vt 0.8000 0.2500
vt 0.1600 0.9688
vt 0.1600 0.2500
vt 0.0000 0.2500
vt 0.0000 0.9688
vt 0.9200 0.5938
vt 0.7200 0.0625
vt 0.7200 0.0000
vt 0.7200 0.2500
vt 0.8000 0.2500
vt 0.9200 0.4688
vt 0.9200 0.5938
vt 0.9600 0.5938
vt 0.9600 0.4375
vt 0.7600 0.6563
vt 0.7600 0.4688
vt 0.7200 0.4375
vt 0.7200 0.6563
vt 0.1600 0.0000
vt 0.1600 0.1875
vt 0.8000 0.7188
vt 0.8000 0.6563
vt 0.0000 1.0000
vt 0.1600 1.0000
vt 0.3200 0.0000
vt 0.3200 0.0625
vt 0.9600 0.0938
vt 1.0000 0.0938
vt 1.0000 0.0000
vt 0.9600 0.0000
vt 0.4800 0.7188
vt 0.6000 0.7188
vt 0.6000 0.0000
vt 0.4800 0.0000
vt 0.9600 0.1875
vt 1.0000 0.1875
vt 0.7200 0.7188
vt 0.7200 0.0000
vt 0.4800 0.7813
vt 0.4800 0.0625
vt 0.4800 0.8125
vn -0.0000 -1.0000 0.0000
vn 0.0000 0.0000 -1.0000
vn 1.0000 0.0000 0.0000
vn 0.0000 0.0000 1.0000
vn 0.0000 1.0000 0.0000
vn 0.8321 0.5547 0.0000
vn 0.8321 -0.5547 0.0000
vn -1.0000 0.0000 0.0000
vn -0.8321 0.5547 0.0000
vn -0.8321 -0.5547 0.0000
s off
f 61/1/1 21/2/1 8/3/1 62/4/1
f 4/5/2 6/6/2 13/7/2 11/8/2
f 16/9/3 11/10/3 5/11/3 15/12/3
f 24/13/4 12/14/4 23/15/4
f 11/8/2 13/7/2 9/16/2 5/17/2
f 2/18/5 7/19/5 6/20/5 4/21/5
f 7/22/4 12/14/4 24/13/4
f 14/23/3 4/24/3 11/10/3 16/9/3
f 1/25/3 14/23/3 16/9/3 10/26/3
f 15/27/4 19/28/4 17/29/4 16/30/4
f 16/31/5 17/32/5 18/33/5 10/34/5
f 53/35/4 54/36/4 19/28/4 15/27/4
f 10/34/5 18/33/5 50/37/5 48/38/5
f 1/39/5 43/40/5 49/41/5 14/42/5
f 14/42/5 49/41/5 47/43/5 4/21/5
f 10/44/2 48/45/2 43/46/2 1/47/2
f 7/19/5 2/18/5 25/48/5 22/49/5
f 15/50/1 5/51/1 52/52/1 53/53/1
f 12/54/3 7/55/3 22/56/3 20/57/3
f 5/51/1 21/2/1 61/1/1 52/52/1
f 4/21/5 47/43/5 42/58/5 2/18/5
f 6/59/6 7/60/6 24/61/6 13/62/6
f 23/63/3 12/54/3 20/57/3 3/64/3
f 13/62/7 24/61/7 23/65/7 9/66/7
f 5/51/1 9/67/1 23/68/1 21/2/1
f 2/18/5 42/58/5 51/69/5 25/48/5
f 21/2/1 23/68/1 3/70/1 8/3/1
f 61/1/1 62/4/1 33/71/1 56/72/1
f 29/73/2 36/74/2 38/75/2 31/76/2
f 41/77/8 40/78/8 30/79/8 36/80/8
f 59/81/4 58/82/4 37/83/4
f 36/74/2 30/84/2 34/85/2 38/75/2
f 27/86/5 29/87/5 31/88/5 32/89/5
f 32/90/4 59/81/4 37/83/4
f 39/91/8 41/77/8 36/80/8 29/92/8
f 26/93/8 35/94/8 41/77/8 39/91/8
f 40/95/4 41/96/4 44/97/4 46/98/4
f 41/99/5 35/100/5 45/101/5 44/102/5
f 53/35/4 40/95/4 46/98/4 54/36/4
f 35/100/5 48/38/5 50/37/5 45/101/5
f 26/103/5 39/104/5 49/41/5 43/40/5
f 39/104/5 29/87/5 47/43/5 49/41/5
f 35/105/2 26/106/2 43/46/2 48/45/2
f 32/89/5 57/107/5 60/108/5 27/86/5
f 40/109/1 53/53/1 52/52/1 30/110/1
f 37/111/8 55/112/8 57/113/8 32/114/8
f 30/110/1 52/52/1 61/1/1 56/72/1
f 29/87/5 27/86/5 42/58/5 47/43/5
f 31/115/9 38/116/9 59/117/9 32/118/9
f 58/119/8 28/120/8 55/112/8 37/111/8
f 38/116/10 34/121/10 58/122/10 59/117/10
f 30/110/1 56/72/1 58/123/1 34/124/1
f 27/86/5 60/108/5 51/69/5 42/58/5
f 56/72/1 33/71/1 28/125/1 58/123/1
