# Blender v2.79 (sub 0) OBJ File: 'small_hanger.blend'
# www.blender.org
o outside_small_hanger_editor_Cube.003
v -9.000000 -1.500000 9.000000
v -7.434315 -0.700000 9.000000
v -8.200001 0.065685 9.000000
v -8.200004 5.934315 8.999996
v -7.434318 6.700000 8.999996
v -8.999969 7.499965 8.999996
v -7.600000 -1.100000 9.000000
v -8.600000 -0.100000 9.000000
v -8.600003 6.100000 8.999996
v -7.600003 7.100000 8.999996
v -7.434315 -0.700000 9.300000
v -8.200001 0.065686 9.300000
v -8.200004 5.934315 9.299996
v -7.434318 6.700000 9.299996
v -7.600000 -1.100000 9.200000
v -7.558579 -1.000000 9.300000
v -8.500000 -0.058579 9.300000
v -8.600000 -0.100000 9.200000
v -8.600003 6.100000 9.199996
v -8.500003 6.058578 9.299996
v -7.558582 7.000000 9.299996
v -7.600003 7.100000 9.199996
v 9.000000 -1.500000 9.000000
v 7.434315 -0.700000 9.000000
v 8.200001 0.065685 9.000000
v 8.200004 5.934315 8.999996
v 7.434318 6.700000 8.999996
v 8.999969 7.499965 8.999996
v 7.600000 -1.100000 9.000000
v 8.600000 -0.100000 9.000000
v 8.600003 6.100000 8.999996
v 7.600003 7.100000 8.999996
v 7.434315 -0.700000 9.300000
v 8.200001 0.065686 9.300000
v 8.200004 5.934315 9.299996
v 7.434318 6.700000 9.299996
v 7.600000 -1.100000 9.200000
v 7.558579 -1.000000 9.300000
v 8.500000 -0.058579 9.300000
v 8.600000 -0.100000 9.200000
v 8.600003 6.100000 9.199996
v 8.500003 6.058578 9.299996
v 7.558582 7.000000 9.299996
v 7.600003 7.100000 9.199996
v -9.000000 -1.500000 -9.000000
v -8.999969 7.499965 -9.000004
v 9.000000 -1.500000 -9.000000
v 8.999969 7.499965 -9.000004
vt 0.210412 0.824664
vt 0.203904 0.827648
vt 0.203904 0.464555
vt 0.210412 0.467539
vt 0.383948 0.463560
vt 0.388286 0.463560
vt 0.388286 0.828643
vt 0.383948 0.828643
vt 0.978308 0.036028
vt 0.956616 0.012009
vt 0.986985 0.002402
vt 0.822125 0.012009
vt 0.800433 0.036028
vt 0.791757 0.002403
vt 0.390456 0.464555
vt 0.390456 0.827648
vt 0.396963 0.588457
vt 0.396963 0.439541
vt 0.401302 0.439541
vt 0.401302 0.588457
vt 0.422994 0.838251
vt 0.422994 0.856642
vt 0.416486 0.856642
vt 0.416486 0.838251
vt 0.986985 0.434737
vt 0.978308 0.401111
vt 0.227021 0.449149
vt 0.224325 0.441943
vt 0.412148 0.803630
vt 0.409978 0.804625
vt 0.409978 0.439541
vt 0.412148 0.440536
vt 0.396963 0.612476
vt 0.401302 0.612476
vt 0.370933 0.467539
vt 0.354323 0.449149
vt 0.357019 0.441943
vt 0.377440 0.464555
vt 0.791757 0.434737
vt 0.800433 0.401111
vt 0.991323 0.359526
vt 0.991323 0.002402
vt 0.997831 0.002402
vt 0.997831 0.359526
vt 0.416486 0.833447
vt 0.416486 0.815056
vt 0.422994 0.815056
vt 0.422994 0.833447
vt 0.422994 0.997598
vt 0.416486 0.997598
vt 0.405640 0.804625
vt 0.405640 0.439541
vt 0.357917 0.439541
vt 0.379609 0.463560
vt 0.201735 0.463560
vt 0.223427 0.439541
vt 0.002169 0.002402
vt 0.392625 0.002402
vt 0.392626 0.434737
vt 0.002169 0.434737
vt 0.383948 0.852662
vt 0.388286 0.852662
vt 0.956616 0.425130
vt 0.822125 0.425130
vt 0.401302 0.766195
vt 0.396963 0.766195
vt 0.396963 0.617279
vt 0.401302 0.617279
vt 0.412148 0.968776
vt 0.405640 0.968776
vt 0.405640 0.950385
vt 0.412148 0.950385
vt 0.227021 0.843054
vt 0.224326 0.850260
vt 0.401302 0.790213
vt 0.396963 0.790213
vt 0.370933 0.824664
vt 0.377440 0.827648
vt 0.357019 0.850260
vt 0.354323 0.843054
vt 0.416486 0.439541
vt 0.422994 0.439541
vt 0.422994 0.457932
vt 0.416486 0.457932
vt 0.405640 0.809429
vt 0.412148 0.809429
vt 0.379610 0.828643
vt 0.357918 0.852662
vt 0.223427 0.852662
vt 0.201735 0.828643
vt 0.383948 0.439541
vt 0.388286 0.439541
vt 0.197397 0.871877
vt 0.002169 0.871877
vt 0.002169 0.439541
vt 0.197397 0.439541
vt 0.986985 0.871877
vt 0.791757 0.871877
vt 0.791757 0.439541
vt 0.986985 0.439541
vt 0.787419 0.871877
vt 0.592192 0.871876
vt 0.592192 0.439542
vt 0.787419 0.439541
vt 0.443941 0.833447
vt 0.427332 0.815056
vt 0.427332 0.457932
vt 0.443941 0.439541
vt 0.571244 0.439541
vt 0.587853 0.457932
vt 0.587853 0.815056
vt 0.571244 0.833447
vt 0.787419 0.434737
vt 0.396964 0.434738
vt 0.396964 0.002402
vt 0.787419 0.002402
vn 0.0000 0.0000 1.0000
vn 0.0000 -1.0000 0.0000
vn 0.0000 -0.7071 0.7071
vn -1.0000 -0.0000 0.0000
vn 0.7071 0.7071 -0.0000
vn 0.0000 0.7071 0.7071
vn -0.7071 0.7071 0.0000
vn 0.0000 1.0000 -0.0000
vn 0.7071 -0.7071 0.0000
vn 1.0000 0.0000 -0.0000
vn -0.5000 -0.5000 0.7071
vn -0.5000 0.5000 0.7071
vn -0.7071 0.0000 0.7071
vn -0.7071 -0.7071 0.0000
vn 0.5000 -0.5000 0.7071
vn 0.5000 0.5000 0.7071
vn 0.7071 0.0000 0.7071
vn 0.0000 -0.0000 -1.0000
s off
f 36/1/1 43/2/1 21/3/1 14/4/1
f 29/5/2 37/6/2 15/7/2 7/8/2
f 7/9/1 8/10/1 1/11/1
f 9/12/1 10/13/1 6/14/1
f 37/6/3 38/15/3 16/16/3 15/7/3
f 1/11/1 8/10/1 9/12/1 6/14/1
f 9/17/4 8/18/4 18/19/4 19/20/4
f 2/21/5 3/22/5 12/23/5 11/24/5
f 1/11/1 23/25/1 29/26/1 7/9/1
f 13/27/1 14/4/1 21/3/1 20/28/1
f 43/29/6 44/30/6 22/31/6 21/32/6
f 10/33/7 9/17/7 19/20/7 22/34/7
f 11/35/1 12/36/1 17/37/1 16/38/1
f 28/39/1 6/14/1 10/13/1 32/40/1
f 11/41/8 33/42/8 24/43/8 2/44/8
f 4/45/9 5/46/9 14/47/9 13/48/9
f 12/36/1 13/27/1 20/28/1 17/37/1
f 3/22/10 4/49/10 13/50/10 12/23/10
f 22/31/8 44/30/8 32/51/8 10/52/8
f 16/38/11 17/37/11 18/53/11 15/54/11
f 20/28/12 21/3/12 22/55/12 19/56/12
f 17/37/13 20/28/13 19/56/13 18/53/13
f 23/57/2 1/58/2 45/59/2 47/60/2
f 8/61/14 7/8/14 15/7/14 18/62/14
f 29/26/1 23/25/1 30/63/1
f 31/64/1 28/39/1 32/40/1
f 23/25/1 28/39/1 31/64/1 30/63/1
f 31/65/10 41/66/10 40/67/10 30/68/10
f 24/69/7 33/70/7 34/71/7 25/72/7
f 35/73/1 42/74/1 43/2/1 36/1/1
f 32/75/5 44/76/5 41/66/5 31/65/5
f 33/77/1 38/78/1 39/79/1 34/80/1
f 26/81/14 35/82/14 36/83/14 27/84/14
f 34/80/1 39/79/1 42/74/1 35/73/1
f 25/72/4 34/71/4 35/85/4 26/86/4
f 38/78/15 37/87/15 40/88/15 39/79/15
f 42/74/16 41/89/16 44/90/16 43/2/16
f 39/79/17 40/88/17 41/89/17 42/74/17
f 30/91/9 40/92/9 37/6/9 29/5/9
f 16/38/1 38/78/1 33/77/1 11/35/1
f 27/84/2 36/83/2 14/47/2 5/46/2
f 1/93/4 6/94/4 46/95/4 45/96/4
f 28/97/10 23/98/10 47/99/10 48/100/10
f 45/101/18 46/102/18 48/103/18 47/104/18
f 3/105/1 2/106/1 24/107/1 25/108/1 26/109/1 27/110/1 5/111/1 4/112/1
f 6/113/8 28/114/8 48/115/8 46/116/8
