# Blender v2.79 (sub 0) OBJ File: 'CobraExport.blend'
# www.blender.org
o Canopy_Inside_Cube.007
v -0.492194 -0.513756 3.106845
v -0.510560 -0.305022 0.048975
v -0.588243 -0.566822 0.746985
v -0.377749 -0.090054 0.061472
v -0.561995 -0.450000 3.500000
v -0.706223 -0.600000 0.800000
v -0.617053 -0.300000 0.000000
v -0.502169 0.000000 0.000000
v -0.379931 -0.013781 0.746745
v -0.446215 -0.138676 0.059162
v -0.377590 -0.015966 0.846702
v -0.432810 -0.099593 0.011464
v -0.592992 -0.587286 0.846955
v -0.523709 -0.335746 -0.003000
v -0.440575 -0.537203 3.432658
v -0.612878 -0.635746 0.797000
v -0.309397 0.032466 0.845647
v -0.493130 -0.548391 3.481782
v -0.356979 0.042990 0.796699
v -0.311474 0.034248 0.747787
v -0.474959 -0.488178 3.441925
v -0.340464 0.085810 0.847228
v -0.342668 0.087517 0.749322
v -0.412275 -0.040420 0.055308
v -0.527236 -0.467941 3.132988
v -0.639310 -0.568849 0.848466
v -0.408792 0.037527 0.848340
v -0.556996 -0.286823 0.049476
v -0.634852 -0.548982 0.748504
v -0.411209 0.039557 0.748384
v -0.480734 -0.088519 0.054570
v 0.000000 -0.537201 3.429771
v 0.492194 -0.513756 3.106845
v 0.510560 -0.305022 0.048975
v 0.588243 -0.566822 0.746985
v 0.377749 -0.090054 0.061472
v 0.000000 -0.450000 3.500000
v 0.561995 -0.450000 3.500000
v 0.706223 -0.600000 0.800000
v 0.617053 -0.300000 0.000000
v 0.502169 0.000000 0.000000
v 0.000000 0.000000 0.000000
v 0.379931 -0.013781 0.746745
v 0.446215 -0.138676 0.059162
v 0.000000 0.036863 0.846987
v 0.000000 -0.098287 0.018429
v 0.377590 -0.015966 0.846702
v 0.432810 -0.099593 0.011464
v 0.592992 -0.587286 0.846955
v 0.523709 -0.335746 -0.003000
v 0.440575 -0.537203 3.432658
v 0.612878 -0.635746 0.797000
v 0.309397 0.032466 0.845647
v 0.493130 -0.548391 3.481782
v 0.000000 -0.547619 3.478307
v 0.000000 0.047938 0.798299
v 0.356979 0.042990 0.796699
v 0.000000 -0.089661 0.066855
v 0.000000 0.038529 0.748838
v 0.311474 0.034248 0.747787
v 0.000000 -0.488177 3.440481
v 0.474959 -0.488178 3.441925
v 0.340464 0.085810 0.847228
v 0.000000 0.088008 0.847898
v 0.000000 -0.040223 0.058000
v 0.342668 0.087517 0.749322
v 0.000000 0.089657 0.749847
v 0.412275 -0.040420 0.055308
v 0.527236 -0.467941 3.132988
v 0.639310 -0.568849 0.848466
v 0.408792 0.037527 0.848340
v 0.556996 -0.286823 0.049476
v 0.634852 -0.548982 0.748504
v 0.411209 0.039557 0.748384
v 0.480734 -0.088519 0.054570
vt 0.341309 0.245745
vt 0.323923 0.245907
vt 0.336420 0.047698
vt 0.353803 0.047248
vt 0.685127 0.026916
vt 0.685127 0.647341
vt 0.668498 0.647114
vt 0.667839 0.033370
vt 0.758313 0.191594
vt 0.851126 0.026916
vt 0.870649 0.033001
vt 0.778973 0.196049
vt 0.341612 0.273199
vt 0.324174 0.273395
vt 0.392208 0.243113
vt 0.413284 0.241083
vt 0.413284 0.871229
vt 0.391986 0.866369
vt 0.963407 0.026916
vt 0.963407 0.119150
vt 0.944694 0.119063
vt 0.943836 0.035221
vt 0.047234 0.026916
vt 0.243911 0.030087
vt 0.209132 0.033237
vt 0.036593 0.031399
vt 0.243911 0.754451
vt 0.207410 0.754237
vt 0.234316 0.973084
vt 0.197816 0.972871
vt 0.840882 0.475786
vt 0.758313 0.414263
vt 0.801925 0.408300
vt 0.866927 0.456896
vt 0.834279 0.291192
vt 0.866927 0.302057
vt 0.173644 0.958109
vt 0.172428 0.775004
vt 0.189907 0.762237
vt 0.191260 0.971728
vt 0.063893 0.773024
vt 0.065524 0.759861
vt 0.041556 0.954537
vt 0.040022 0.967432
vt 0.389836 0.216597
vt 0.356128 0.041582
vt 0.359475 0.026916
vt 0.397922 0.226789
vt 0.317097 0.262764
vt 0.331370 0.035595
vt 0.397659 0.967226
vt 0.191299 0.046297
vt 0.037078 0.044587
vt 0.064971 0.746623
vt 0.172765 0.748668
vt 0.857938 0.237360
vt 0.870649 0.237270
vt 0.594652 0.744934
vt 0.573411 0.744701
vt 0.573650 0.031313
vt 0.594652 0.029275
vt 0.958123 0.658513
vt 0.940114 0.658498
vt 0.940124 0.539919
vt 0.958123 0.530678
vt 0.776576 0.529658
vt 0.776576 0.699088
vt 0.758943 0.688651
vt 0.758313 0.529618
vt 0.377174 0.038096
vt 0.957438 0.476845
vt 0.940114 0.474631
vt 0.940814 0.291192
vt 0.957438 0.291754
vt 0.486471 0.029243
vt 0.498093 0.026916
vt 0.341309 0.245745
vt 0.353803 0.047248
vt 0.336420 0.047698
vt 0.323923 0.245907
vt 0.685127 0.026916
vt 0.667839 0.033370
vt 0.668498 0.647114
vt 0.685127 0.647341
vt 0.758313 0.191594
vt 0.778973 0.196049
vt 0.870649 0.033001
vt 0.851126 0.026916
vt 0.341612 0.273199
vt 0.413284 0.241083
vt 0.392208 0.243113
vt 0.324174 0.273395
vt 0.391986 0.866369
vt 0.413284 0.871229
vt 0.963407 0.026916
vt 0.943836 0.035221
vt 0.209132 0.033237
vt 0.243911 0.030087
vt 0.207410 0.754237
vt 0.243911 0.754451
vt 0.197816 0.972871
vt 0.234316 0.973084
vt 0.840882 0.475786
vt 0.866927 0.456896
vt 0.801925 0.408300
vt 0.758313 0.414263
vt 0.173644 0.958109
vt 0.191260 0.971728
vt 0.189907 0.762237
vt 0.172428 0.775004
vt 0.389836 0.216597
vt 0.397922 0.226789
vt 0.359475 0.026916
vt 0.356128 0.041582
vt 0.317097 0.262764
vt 0.331370 0.035595
vt 0.397659 0.967226
vt 0.191299 0.046297
vt 0.172765 0.748668
vt 0.594652 0.744934
vt 0.594652 0.029275
vt 0.573650 0.031313
vt 0.573411 0.744701
vt 0.958123 0.530678
vt 0.940124 0.539919
vt 0.776576 0.529658
vt 0.758313 0.529618
vt 0.758943 0.688651
vt 0.776576 0.699088
vt 0.377174 0.038096
vt 0.957438 0.476845
vt 0.957438 0.291754
vt 0.940814 0.291192
vt 0.940114 0.474631
vn 0.3434 0.8662 0.3631
vn -0.8413 -0.5172 -0.1573
vn 0.8330 0.5240 -0.1778
vn 0.0303 -0.0111 0.9995
vn 0.6063 0.7931 -0.0588
vn 0.0022 0.0250 -0.9997
vn 0.0034 -0.1984 0.9801
vn -0.6309 -0.7732 0.0650
vn -0.3434 -0.8662 -0.3631
vn 0.0564 0.0053 -0.9984
vn 0.0076 -0.1468 -0.9891
vn 0.0059 -0.9840 0.1779
vn 0.0128 -0.9822 0.1872
vn -0.0007 -0.9833 0.1819
vn 0.9349 -0.3540 -0.0259
vn 0.9354 -0.3525 -0.0271
vn 0.9348 -0.3539 -0.0286
vn 0.9332 -0.3582 -0.0276
vn 0.9353 -0.3526 -0.0302
vn -0.0007 -0.9763 -0.2164
vn 0.0147 -0.9748 -0.2228
vn 0.0061 -0.9766 -0.2148
vn -0.0102 0.1464 0.9892
vn 0.8395 0.5200 0.1578
vn -0.0046 0.1981 -0.9802
vn -0.0303 0.0112 -0.9995
vn -0.0647 -0.0169 0.9978
vn -0.8327 -0.5243 0.1779
vn -0.0028 -0.0247 0.9997
vn -0.3434 0.8662 0.3631
vn 0.8413 -0.5172 -0.1573
vn -0.8330 0.5240 -0.1778
vn -0.0303 -0.0111 0.9995
vn -0.6063 0.7931 -0.0588
vn -0.0022 0.0250 -0.9997
vn -0.0034 -0.1984 0.9801
vn 0.6309 -0.7732 0.0650
vn 0.3434 -0.8662 -0.3631
vn -0.0564 0.0053 -0.9984
vn -0.0076 -0.1468 -0.9891
vn -0.0059 -0.9840 0.1779
vn -0.0128 -0.9822 0.1872
vn 0.0007 -0.9833 0.1819
vn -0.9349 -0.3540 -0.0259
vn -0.9354 -0.3525 -0.0271
vn -0.9348 -0.3539 -0.0286
vn -0.9332 -0.3582 -0.0276
vn -0.9353 -0.3526 -0.0302
vn 0.0007 -0.9763 -0.2164
vn -0.0147 -0.9748 -0.2228
vn -0.0061 -0.9766 -0.2148
vn 0.0102 0.1464 0.9892
vn -0.8395 0.5200 0.1578
vn 0.0046 0.1981 -0.9802
vn 0.0303 0.0112 -0.9995
vn 0.0647 -0.0169 0.9978
vn 0.8327 -0.5243 0.1779
vn 0.0028 -0.0247 0.9997
s off
f 29/1/1 3/2/1 2/3/1 28/4/1
f 25/5/2 27/6/2 11/7/2 1/8/2
f 24/9/3 23/10/3 20/11/3 4/12/3
f 26/13/4 13/14/4 11/15/4 27/16/4
f 26/13/5 25/17/5 1/18/5 13/14/5
f 23/19/6 67/20/6 59/21/6 20/22/6
f 37/23/7 5/24/7 18/25/7 55/26/7
f 5/24/8 6/27/8 16/28/8 18/25/8
f 6/27/9 7/29/9 14/30/9 16/28/9
f 7/31/10 8/32/10 12/33/10 14/34/10
f 8/32/11 42/35/11 46/36/11 12/33/11
f 4/37/12 20/38/12 19/39/12 12/40/12
f 20/38/13 59/41/13 56/42/13 19/39/13
f 58/43/14 4/37/14 12/40/14 46/44/14
f 9/45/15 10/46/15 12/47/15 19/48/15
f 3/2/16 9/45/16 19/48/16 16/49/16
f 2/3/17 3/2/17 16/49/17 14/50/17
f 10/46/18 2/3/18 14/50/18 12/47/18
f 13/14/19 1/18/19 18/51/19 16/49/19
f 1/18/19 11/15/19 19/48/19 18/51/19
f 11/15/19 13/14/19 16/49/19 19/48/19
f 15/52/20 32/53/20 55/26/20 18/25/20
f 45/54/21 17/55/21 19/39/21 56/42/21
f 17/55/22 15/52/22 18/25/22 19/39/22
f 65/56/23 24/9/23 4/12/23 58/57/23
f 21/58/24 15/59/24 17/60/24 22/61/24
f 61/62/25 32/63/25 15/64/25 21/65/25
f 29/66/26 30/67/26 9/68/26 3/69/26
f 28/4/27 2/3/27 10/46/27 31/70/27
f 31/71/28 10/72/28 9/73/28 30/74/28
f 17/60/29 45/75/29 64/76/29 22/61/29
f 73/77/30 72/78/30 34/79/30 35/80/30
f 69/81/31 33/82/31 47/83/31 71/84/31
f 68/85/32 36/86/32 60/87/32 66/88/32
f 70/89/33 71/90/33 47/91/33 49/92/33
f 70/89/34 49/92/34 33/93/34 69/94/34
f 66/95/35 60/96/35 59/21/35 67/20/35
f 37/23/36 55/26/36 54/97/36 38/98/36
f 38/98/37 54/97/37 52/99/37 39/100/37
f 39/100/38 52/99/38 50/101/38 40/102/38
f 40/103/39 50/104/39 48/105/39 41/106/39
f 41/106/40 48/105/40 46/36/40 42/35/40
f 36/107/41 48/108/41 57/109/41 60/110/41
f 60/110/42 57/109/42 56/42/42 59/41/42
f 58/43/43 46/44/43 48/108/43 36/107/43
f 43/111/44 57/112/44 48/113/44 44/114/44
f 35/80/45 52/115/45 57/112/45 43/111/45
f 34/79/46 50/116/46 52/115/46 35/80/46
f 44/114/47 48/113/47 50/116/47 34/79/47
f 49/92/48 52/115/48 54/117/48 33/93/48
f 33/93/48 54/117/48 57/112/48 47/91/48
f 47/91/48 57/112/48 52/115/48 49/92/48
f 51/118/49 54/97/49 55/26/49 32/53/49
f 45/54/50 56/42/50 57/109/50 53/119/50
f 53/119/51 57/109/51 54/97/51 51/118/51
f 65/56/52 58/57/52 36/86/52 68/85/52
f 62/120/53 63/121/53 53/122/53 51/123/53
f 61/62/54 62/124/54 51/125/54 32/63/54
f 73/126/55 35/127/55 43/128/55 74/129/55
f 72/78/56 75/130/56 44/114/56 34/79/56
f 75/131/57 74/132/57 43/133/57 44/134/57
f 53/122/58 63/121/58 64/76/58 45/75/58
