# Blender v2.79 (sub 0) OBJ File: 'CobraExport.blend'
# www.blender.org
o Wing_L_Cube.000
v 1.800000 0.100000 -0.550000
v 1.800000 0.100000 1.950000
v -1.800000 0.100000 0.850000
v -1.800000 0.100000 -2.349999
v -1.523077 0.100000 0.934616
v -1.246153 0.100000 1.019231
v -0.969230 0.100000 1.103847
v -0.692307 0.100000 1.188462
v -0.415384 0.100000 1.273077
v -0.138461 0.100000 1.357693
v 0.138462 0.100000 1.442308
v 0.415385 0.100000 1.526924
v 0.692308 0.100000 1.611539
v 0.969232 0.100000 1.696154
v 1.246154 0.100000 1.780770
v 1.523077 0.100000 1.865385
v 1.523077 0.100000 -0.688461
v 1.246154 0.100000 -0.826923
v 0.969231 0.100000 -0.965384
v 0.692307 0.100000 -1.103846
v 0.415384 0.100000 -1.242308
v 0.138461 0.100000 -1.380769
v -0.138462 0.100000 -1.519231
v -0.415385 0.100000 -1.657692
v -0.692308 0.100000 -1.796154
v -0.969231 0.100000 -1.934615
v -1.246154 0.100000 -2.073077
v -1.523077 0.100000 -2.211538
v 1.523077 0.050000 0.211539
v 1.246154 0.050000 0.073077
v 0.969231 0.050000 -0.065384
v 0.692307 0.050000 -0.203846
v 0.415384 0.050000 -0.342308
v 0.138461 0.050000 -0.480769
v -0.138462 0.050000 -0.619231
v -0.415385 0.050000 -0.757692
v -0.692308 0.050000 -0.896154
v -0.969231 0.050000 -1.034615
v -1.246154 0.050000 -1.173077
v -1.523077 0.050000 -1.311538
v -1.523077 0.050000 -2.211538
v -1.246154 0.050000 -2.073077
v -0.969231 0.050000 -1.934615
v -0.692308 0.050000 -1.796154
v -0.415385 0.050000 -1.657692
v -0.138462 0.050000 -1.519231
v 0.138461 0.050000 -1.380769
v 0.415384 0.050000 -1.242308
v 0.692307 0.050000 -1.103846
v 0.969231 0.050000 -0.965384
v 1.246154 0.050000 -0.826923
v 1.523077 0.050000 -0.688461
v 1.800000 0.100000 0.350000
v -1.800000 0.100000 -1.449999
v -1.523077 0.100000 -1.311538
v -1.246154 0.100000 -1.173077
v -0.969231 0.100000 -1.034615
v -0.692308 0.100000 -0.896154
v -0.415385 0.100000 -0.757692
v -0.138462 0.100000 -0.619231
v 0.138461 0.100000 -0.480769
v 0.415384 0.100000 -0.342308
v 0.692307 0.100000 -0.203846
v 0.969231 0.100000 -0.065384
v 1.246154 0.100000 0.073077
v 1.523077 0.100000 0.211539
v 1.800000 0.050000 -0.550000
v -1.800000 0.050000 -2.349999
v 1.800000 -0.100000 -0.550000
v 1.800000 -0.100000 1.950000
v -1.800000 -0.100000 0.850000
v -1.800000 -0.100000 -2.349999
v -1.523077 -0.100000 0.934616
v -1.246153 -0.100000 1.019231
v -0.969230 -0.100000 1.103847
v -0.692307 -0.100000 1.188462
v -0.415384 -0.100000 1.273077
v -0.138461 -0.100000 1.357693
v 0.138462 -0.100000 1.442308
v 0.415385 -0.100000 1.526924
v 0.692308 -0.100000 1.611539
v 0.969232 -0.100000 1.696154
v 1.246154 -0.100000 1.780770
v 1.523077 -0.100000 1.865385
v 1.523077 -0.100000 -0.688461
v 1.246154 -0.100000 -0.826923
v 0.969231 -0.100000 -0.965384
v 0.692307 -0.100000 -1.103846
v 0.415384 -0.100000 -1.242308
v 0.138461 -0.100000 -1.380769
v -0.138462 -0.100000 -1.519231
v -0.415385 -0.100000 -1.657692
v -0.692308 -0.100000 -1.796154
v -0.969231 -0.100000 -1.934615
v -1.246154 -0.100000 -2.073077
v -1.523077 -0.100000 -2.211538
v 1.523077 -0.050000 0.211539
v 1.246154 -0.050000 0.073077
v 0.969231 -0.050000 -0.065384
v 0.692307 -0.050000 -0.203846
v 0.415384 -0.050000 -0.342308
v 0.138461 -0.050000 -0.480769
v -0.138462 -0.050000 -0.619231
v -0.415385 -0.050000 -0.757692
v -0.692308 -0.050000 -0.896154
v -0.969231 -0.050000 -1.034615
v -1.246154 -0.050000 -1.173077
v -1.523077 -0.050000 -1.311538
v -1.523077 -0.050000 -2.211538
v -1.246154 -0.050000 -2.073077
v -0.969231 -0.050000 -1.934615
v -0.692308 -0.050000 -1.796154
v -0.415385 -0.050000 -1.657692
v -0.138462 -0.050000 -1.519231
v 0.138461 -0.050000 -1.380769
v 0.415384 -0.050000 -1.242308
v 0.692307 -0.050000 -1.103846
v 0.969231 -0.050000 -0.965384
v 1.246154 -0.050000 -0.826923
v 1.523077 -0.050000 -0.688461
v 1.800000 -0.100000 0.350000
v -1.800000 -0.100000 -1.449999
v -1.523077 -0.100000 -1.311538
v -1.246154 -0.100000 -1.173077
v -0.969231 -0.100000 -1.034615
v -0.692308 -0.100000 -0.896154
v -0.415385 -0.100000 -0.757692
v -0.138462 -0.100000 -0.619231
v 0.138461 -0.100000 -0.480769
v 0.415384 -0.100000 -0.342308
v 0.692307 -0.100000 -0.203846
v 0.969231 -0.100000 -0.065384
v 1.246154 -0.100000 0.073077
v 1.523077 -0.100000 0.211539
v 1.800000 -0.050000 -0.550000
v -1.800000 -0.050000 -2.349999
vt 0.965850 0.580764
vt 0.965850 0.600267
vt 0.979510 0.600267
vt 0.979510 0.580764
vt 0.931700 0.145191
vt 0.931700 0.133272
vt 0.904380 0.133272
vt 0.904380 0.145191
vt 0.215646 0.122946
vt 0.222680 0.079943
vt 0.105106 0.116988
vt 0.098072 0.159991
vt 0.986340 0.473496
vt 0.979510 0.473496
vt 0.986340 0.600267
vt 0.986340 0.453992
vt 0.979510 0.453992
vt 0.986340 0.356476
vt 0.979510 0.356476
vt 0.979510 0.483247
vt 0.986340 0.483247
vt 0.986340 0.414986
vt 0.979510 0.414986
vt 0.979510 0.434489
vt 0.986340 0.434489
vt 0.986340 0.258960
vt 0.979510 0.258960
vt 0.979510 0.278463
vt 0.986340 0.278463
vt 0.966182 0.830972
vt 0.973012 0.830972
vt 0.973012 0.704201
vt 0.966182 0.704201
vt 0.795432 0.985914
vt 0.802262 0.985914
vt 0.802262 0.859143
vt 0.795432 0.859143
vt 0.986340 0.297966
vt 0.979510 0.297966
vt 0.979510 0.317470
vt 0.986340 0.317470
vt 0.932032 0.985914
vt 0.938862 0.985914
vt 0.938862 0.859143
vt 0.932032 0.859143
vt 0.986340 0.395483
vt 0.979510 0.395483
vt 0.979510 0.522254
vt 0.986340 0.522254
vt 0.986340 0.375979
vt 0.979510 0.375979
vt 0.829582 0.985914
vt 0.836412 0.985914
vt 0.836412 0.859143
vt 0.829582 0.859143
vt 0.979510 0.405234
vt 0.986340 0.405234
vt 0.979510 0.561260
vt 0.986340 0.561260
vt 0.013660 0.830972
vt 0.051488 0.850475
vt 0.051488 0.723704
vt 0.013660 0.704201
vt 0.339398 0.830972
vt 0.377226 0.850475
vt 0.377226 0.723704
vt 0.339398 0.704201
vt 0.209103 0.830972
vt 0.246931 0.850475
vt 0.246931 0.723704
vt 0.209103 0.704201
vt 0.404546 0.830972
vt 0.442374 0.850475
vt 0.442374 0.723704
vt 0.404546 0.704201
vt 0.665136 0.830972
vt 0.702964 0.850475
vt 0.702964 0.723704
vt 0.665136 0.704201
vt 0.599989 0.830972
vt 0.637816 0.850475
vt 0.637816 0.723704
vt 0.599989 0.704201
vt 0.131234 0.638984
vt 0.138268 0.595981
vt 0.020694 0.633026
vt 0.013660 0.676029
vt 0.145302 0.552978
vt 0.152337 0.509975
vt 0.034763 0.547020
vt 0.027729 0.590023
vt 0.897882 0.830972
vt 0.904712 0.830972
vt 0.904712 0.704201
vt 0.897882 0.704201
vt 0.159371 0.466972
vt 0.166405 0.423969
vt 0.048832 0.461014
vt 0.041797 0.504017
vt 0.173440 0.380965
vt 0.180474 0.337962
vt 0.062900 0.375007
vt 0.055866 0.418010
vt 0.986340 0.336973
vt 0.979510 0.336973
vt 0.187508 0.294959
vt 0.194543 0.251956
vt 0.076969 0.289001
vt 0.069934 0.332004
vt 0.829582 0.830972
vt 0.836412 0.830972
vt 0.836412 0.704201
vt 0.829582 0.704201
vt 0.201577 0.208953
vt 0.208611 0.165950
vt 0.091037 0.202995
vt 0.084003 0.245998
vt 0.979510 0.444241
vt 0.986340 0.444241
vt 0.931700 0.049842
vt 0.931700 0.037923
vt 0.904380 0.037923
vt 0.904380 0.049842
vt 0.931700 0.121354
vt 0.904380 0.121354
vt 0.931700 0.169028
vt 0.931700 0.157110
vt 0.904380 0.157110
vt 0.904380 0.169028
vt 0.931700 0.061760
vt 0.904380 0.061760
vt 0.965850 0.561260
vt 0.931700 0.073679
vt 0.904380 0.073679
vt 0.931700 0.085598
vt 0.904380 0.085598
vt 0.931700 0.026004
vt 0.931700 0.014086
vt 0.904380 0.014086
vt 0.904380 0.026004
vt 0.965850 0.385731
vt 0.965850 0.405234
vt 0.979510 0.385731
vt 0.931700 0.109435
vt 0.931700 0.097516
vt 0.904380 0.097516
vt 0.904380 0.109435
vt 0.965850 0.444241
vt 0.965850 0.463744
vt 0.979510 0.463744
vt 0.965850 0.483247
vt 0.965850 0.502751
vt 0.979510 0.502751
vt 0.965850 0.522254
vt 0.965850 0.424738
vt 0.979510 0.424738
vt 0.965850 0.541757
vt 0.979510 0.541757
vt 0.965850 0.619770
vt 0.979510 0.619770
vt 0.431700 0.095659
vt 0.431700 0.054873
vt 0.431700 0.136446
vt 0.431700 0.177233
vt 0.431700 0.218020
vt 0.431700 0.258806
vt 0.431700 0.299593
vt 0.431700 0.340380
vt 0.431700 0.381167
vt 0.431700 0.421953
vt 0.431700 0.462740
vt 0.431700 0.503527
vt 0.431700 0.544314
vt 0.431700 0.014086
vt 0.986340 0.580764
vt 0.986340 0.541757
vt 0.986340 0.502751
vt 0.986340 0.463744
vt 0.986340 0.424738
vt 0.986340 0.366228
vt 0.979510 0.366228
vt 0.986340 0.385731
vt 0.986340 0.619770
vt 0.965850 0.366228
vt 0.661005 0.567168
vt 0.543432 0.530123
vt 0.550466 0.573127
vt 0.668040 0.610171
vt 0.959020 0.473496
vt 0.959020 0.600267
vt 0.965850 0.473496
vt 0.959020 0.453992
vt 0.965850 0.453992
vt 0.959020 0.356476
vt 0.959020 0.483247
vt 0.965850 0.356476
vt 0.959020 0.414986
vt 0.959020 0.434489
vt 0.965850 0.434489
vt 0.965850 0.414986
vt 0.959020 0.258960
vt 0.959020 0.278463
vt 0.965850 0.278463
vt 0.965850 0.258960
vt 0.973012 0.985914
vt 0.973012 0.859143
vt 0.966182 0.859143
vt 0.966182 0.985914
vt 0.870562 0.985914
vt 0.870562 0.859143
vt 0.863732 0.859143
vt 0.863732 0.985914
vt 0.959020 0.297966
vt 0.959020 0.317470
vt 0.965850 0.317470
vt 0.965850 0.297966
vt 0.904712 0.985914
vt 0.904712 0.859143
vt 0.897882 0.859143
vt 0.897882 0.985914
vt 0.959020 0.395483
vt 0.959020 0.522254
vt 0.965850 0.395483
vt 0.959020 0.375979
vt 0.965850 0.375979
vt 0.938862 0.830972
vt 0.938862 0.704201
vt 0.932032 0.704201
vt 0.932032 0.830972
vt 0.959020 0.405234
vt 0.959020 0.561260
vt 0.312078 0.830972
vt 0.312078 0.704201
vt 0.274251 0.723704
vt 0.274251 0.850475
vt 0.181783 0.830972
vt 0.181783 0.704201
vt 0.143955 0.723704
vt 0.143955 0.850475
vt 0.078808 0.723704
vt 0.078808 0.850475
vt 0.116635 0.830972
vt 0.116635 0.704201
vt 0.572669 0.830972
vt 0.572669 0.704201
vt 0.534841 0.723704
vt 0.534841 0.850475
vt 0.768112 0.830972
vt 0.768112 0.704201
vt 0.730284 0.723704
vt 0.730284 0.850475
vt 0.507521 0.830972
vt 0.507521 0.704201
vt 0.469694 0.723704
vt 0.469694 0.850475
vt 0.576594 0.051131
vt 0.459020 0.014086
vt 0.466054 0.057089
vt 0.583628 0.094134
vt 0.590662 0.137137
vt 0.473089 0.100092
vt 0.480123 0.143095
vt 0.597697 0.180140
vt 0.802262 0.830972
vt 0.802262 0.704201
vt 0.795432 0.704201
vt 0.795432 0.830972
vt 0.604731 0.223143
vt 0.487157 0.186098
vt 0.494191 0.229101
vt 0.611765 0.266146
vt 0.618800 0.309149
vt 0.501226 0.272104
vt 0.508260 0.315108
vt 0.625834 0.352152
vt 0.959020 0.336973
vt 0.965850 0.336973
vt 0.632868 0.395156
vt 0.515294 0.358111
vt 0.522329 0.401114
vt 0.639903 0.438159
vt 0.870562 0.830972
vt 0.870562 0.704201
vt 0.863732 0.704201
vt 0.863732 0.830972
vt 0.646937 0.481162
vt 0.529363 0.444117
vt 0.536397 0.487120
vt 0.653971 0.524165
vt 0.959020 0.444241
vt 0.877060 0.594456
vt 0.877060 0.635242
vt 0.877060 0.553669
vt 0.877060 0.512882
vt 0.877060 0.472095
vt 0.877060 0.431308
vt 0.877060 0.390522
vt 0.877060 0.349735
vt 0.877060 0.308948
vt 0.877060 0.268161
vt 0.877060 0.227375
vt 0.877060 0.186588
vt 0.877060 0.145801
vt 0.877060 0.676029
vt 0.959020 0.580764
vt 0.959020 0.541757
vt 0.959020 0.502751
vt 0.959020 0.463744
vt 0.959020 0.424738
vt 0.959020 0.366228
vt 0.959020 0.385731
vt 0.959020 0.619770
vt 0.911210 0.619770
vt 0.924870 0.619770
vt 0.931700 0.619770
vt 0.931700 0.492999
vt 0.904380 0.492999
vt 0.904380 0.619770
vt 0.986340 0.239457
vt 0.986340 0.014086
vt 0.959020 0.014086
vt 0.959020 0.239457
vn 0.4472 0.0000 -0.8944
vn -0.2922 0.0000 0.9564
vn 0.0000 1.0000 0.0000
vn 1.0000 0.0000 0.0000
vn -1.0000 0.0000 0.0000
vn 0.0000 -1.0000 0.0000
s off
f 110/1/1 109/2/1 41/3/1 42/4/1
f 74/5/2 75/6/2 7/7/2 6/8/2
f 66/9/3 53/10/3 1/11/3 17/12/3
f 55/13/4 40/14/4 41/3/4 28/15/4
f 56/16/1 39/17/1 40/14/1 55/13/1
f 61/18/4 34/19/4 47/20/4 22/21/4
f 58/22/1 37/23/1 38/24/1 57/25/1
f 66/26/1 29/27/1 30/28/1 65/29/1
f 17/30/5 52/31/5 29/32/5 66/33/5
f 21/34/5 48/35/5 33/36/5 62/37/5
f 64/38/1 31/39/1 32/40/1 63/41/1
f 23/42/5 46/43/5 35/44/5 60/45/5
f 59/46/4 36/47/4 45/48/4 24/49/4
f 60/50/1 35/51/1 36/47/1 59/46/1
f 25/52/5 44/53/5 37/54/5 58/55/5
f 65/29/4 30/28/4 51/56/4 18/57/4
f 57/25/4 38/24/4 43/58/4 26/59/4
f 30/60/3 29/61/3 52/62/3 51/63/3
f 32/64/3 31/65/3 50/66/3 49/67/3
f 34/68/3 33/69/3 48/70/3 47/71/3
f 36/72/3 35/73/3 46/74/3 45/75/3
f 38/76/3 37/77/3 44/78/3 43/79/3
f 40/80/3 39/81/3 42/82/3 41/83/3
f 54/84/3 55/85/3 28/86/3 4/87/3
f 56/88/3 57/89/3 26/90/3 27/91/3
f 19/92/5 50/93/5 31/94/5 64/95/5
f 58/96/3 59/97/3 24/98/3 25/99/3
f 60/100/3 61/101/3 22/102/3 23/103/3
f 62/104/1 33/105/1 34/19/1 61/18/1
f 62/106/3 63/107/3 20/108/3 21/109/3
f 27/110/5 42/111/5 39/112/5 56/113/5
f 64/114/3 65/115/3 18/116/3 19/117/3
f 63/41/4 32/40/4 49/118/4 20/119/4
f 82/120/2 83/121/2 15/122/2 14/123/2
f 75/6/2 76/124/2 8/125/2 7/7/2
f 71/126/2 73/127/2 5/128/2 3/129/2
f 81/130/2 82/120/2 14/123/2 13/131/2
f 111/132/1 110/1/1 42/4/1 43/58/1
f 80/133/2 81/130/2 13/131/2 12/134/2
f 79/135/2 80/133/2 12/134/2 11/136/2
f 84/137/2 70/138/2 2/139/2 16/140/2
f 73/127/2 74/5/2 6/8/2 5/128/2
f 120/141/1 119/142/1 51/56/1 52/143/1
f 77/144/2 78/145/2 10/146/2 9/147/2
f 78/145/2 79/135/2 11/136/2 10/146/2
f 83/121/2 84/137/2 16/140/2 15/122/2
f 76/124/2 77/144/2 9/147/2 8/125/2
f 117/148/1 116/149/1 48/150/1 49/118/1
f 116/149/1 115/151/1 47/20/1 48/150/1
f 115/151/1 114/152/1 46/153/1 47/20/1
f 114/152/1 113/154/1 45/48/1 46/153/1
f 118/155/1 117/148/1 49/118/1 50/156/1
f 113/154/1 112/157/1 44/158/1 45/48/1
f 119/142/1 118/155/1 50/156/1 51/56/1
f 109/2/1 136/159/1 68/160/1 41/3/1
f 112/157/1 111/132/1 43/58/1 44/158/1
f 15/161/3 16/162/3 66/9/3 65/115/3
f 14/163/3 15/161/3 65/115/3 64/114/3
f 13/164/3 14/163/3 64/114/3 63/107/3
f 12/165/3 13/164/3 63/107/3 62/106/3
f 11/166/3 12/165/3 62/106/3 61/101/3
f 10/167/3 11/166/3 61/101/3 60/100/3
f 9/168/3 10/167/3 60/100/3 59/97/3
f 8/169/3 9/168/3 59/97/3 58/96/3
f 7/170/3 8/169/3 58/96/3 57/89/3
f 6/171/3 7/170/3 57/89/3 56/88/3
f 5/172/3 6/171/3 56/88/3 55/85/3
f 3/173/3 5/172/3 55/85/3 54/84/3
f 16/162/3 2/174/3 53/10/3 66/9/3
f 26/59/1 43/58/1 42/4/1 27/175/1
f 24/49/1 45/48/1 44/158/1 25/176/1
f 22/21/1 47/20/1 46/153/1 23/177/1
f 20/119/1 49/118/1 48/150/1 21/178/1
f 18/57/1 51/56/1 50/156/1 19/179/1
f 1/180/1 67/181/1 52/143/1 17/182/1
f 28/15/1 41/3/1 68/160/1 4/183/1
f 135/184/1 120/141/1 52/143/1 67/181/1
f 134/185/6 85/186/6 69/187/6 121/188/6
f 123/189/4 96/190/4 109/2/4 108/191/4
f 124/192/1 123/189/1 108/191/1 107/193/1
f 129/194/4 90/195/4 115/151/4 102/196/4
f 126/197/1 125/198/1 106/199/1 105/200/1
f 134/201/1 133/202/1 98/203/1 97/204/1
f 85/205/5 134/206/5 97/207/5 120/208/5
f 89/209/5 130/210/5 101/211/5 116/212/5
f 132/213/1 131/214/1 100/215/1 99/216/1
f 91/217/5 128/218/5 103/219/5 114/220/5
f 127/221/4 92/222/4 113/154/4 104/223/4
f 128/224/1 127/221/1 104/223/1 103/225/1
f 93/226/5 126/227/5 105/228/5 112/229/5
f 133/202/4 86/230/4 119/142/4 98/203/4
f 125/198/4 94/231/4 111/132/4 106/199/4
f 98/232/6 119/233/6 120/234/6 97/235/6
f 100/236/6 117/237/6 118/238/6 99/239/6
f 102/240/6 115/241/6 116/242/6 101/243/6
f 104/244/6 113/245/6 114/246/6 103/247/6
f 106/248/6 111/249/6 112/250/6 105/251/6
f 108/252/6 109/253/6 110/254/6 107/255/6
f 122/256/6 72/257/6 96/258/6 123/259/6
f 124/260/6 95/261/6 94/262/6 125/263/6
f 87/264/5 132/265/5 99/266/5 118/267/5
f 126/268/6 93/269/6 92/270/6 127/271/6
f 128/272/6 91/273/6 90/274/6 129/275/6
f 130/276/1 129/194/1 102/196/1 101/277/1
f 130/278/6 89/279/6 88/280/6 131/281/6
f 95/282/5 124/283/5 107/284/5 110/285/5
f 132/286/6 87/287/6 86/288/6 133/289/6
f 131/214/4 88/290/4 117/148/4 100/215/4
f 83/291/6 133/289/6 134/185/6 84/292/6
f 82/293/6 132/286/6 133/289/6 83/291/6
f 81/294/6 131/281/6 132/286/6 82/293/6
f 80/295/6 130/278/6 131/281/6 81/294/6
f 79/296/6 129/275/6 130/278/6 80/295/6
f 78/297/6 128/272/6 129/275/6 79/296/6
f 77/298/6 127/271/6 128/272/6 78/297/6
f 76/299/6 126/268/6 127/271/6 77/298/6
f 75/300/6 125/263/6 126/268/6 76/299/6
f 74/301/6 124/260/6 125/263/6 75/300/6
f 73/302/6 123/259/6 124/260/6 74/301/6
f 71/303/6 122/256/6 123/259/6 73/302/6
f 84/292/6 134/185/6 121/188/6 70/304/6
f 94/231/1 95/305/1 110/1/1 111/132/1
f 92/222/1 93/306/1 112/157/1 113/154/1
f 90/195/1 91/307/1 114/152/1 115/151/1
f 88/290/1 89/308/1 116/149/1 117/148/1
f 86/230/1 87/309/1 118/155/1 119/142/1
f 69/310/1 85/311/1 120/141/1 135/184/1
f 96/190/1 72/312/1 136/159/1 109/2/1
f 68/313/5 136/314/5 72/315/5 122/316/5 71/126/5 3/129/5 54/317/5 4/318/5
f 67/181/4 1/180/4 53/319/4 2/320/4 70/321/4 121/322/4 69/310/4 135/184/4
