# Blender v2.77 (sub 0) OBJ File: ''
# www.blender.org
o inside_Cube.015
v -4.300000 1.300000 1.500000
v -4.300000 -1.300000 1.500000
v 4.300000 -1.300000 1.500000
v 4.300000 1.300000 1.500000
v 2.352046 0.838902 7.242990
v -2.352046 0.838902 7.242990
v 2.446893 0.066075 6.963360
v -2.446893 0.066075 6.963360
v 4.300000 1.399335 1.507976
v -2.352046 0.929553 7.250268
v -4.389843 1.300000 1.530474
v -2.446893 -0.028152 6.986921
v 2.446893 -0.028152 6.986921
v -2.352046 0.900112 7.367728
v 2.446893 0.029697 7.063900
v 4.389843 1.300000 1.530474
v 2.352046 0.929553 7.250268
v -4.300000 1.399335 1.507976
v -2.456993 0.838902 7.278586
v -2.551105 0.066075 6.998707
v -4.389843 -1.300000 1.530474
v 4.300000 -1.394117 1.523533
v -4.300000 -1.394117 1.523533
v 2.352046 0.900112 7.367728
v -2.446893 0.029697 7.063900
v 2.456993 0.838902 7.278586
v 4.389843 -1.300000 1.530474
v 2.551105 0.066075 6.998707
v -4.300000 1.300000 -13.300000
v -4.300000 -1.300000 -13.300000
v 4.300000 -1.300000 -13.300000
v 4.300000 1.300000 -13.300000
v -4.300000 1.300000 -13.300000
v -4.300000 -1.300000 -13.300000
v 4.300000 -1.300000 -13.300000
v 4.300000 1.300000 -13.300000
v 1.300000 -1.300000 -13.300000
v 1.300000 1.300000 -13.300000
v -1.300000 -1.300000 -13.300000
v -1.300000 1.300000 -13.300000
v 1.300000 -1.300000 -13.500000
v 1.300000 1.300000 -13.500000
v -1.300000 -1.300000 -13.500000
v -1.300000 1.300000 -13.500000
vt 0.7747 0.9954
vt 0.7628 0.9687
vt 0.7667 0.9688
vt 0.8411 0.6937
vt 0.8368 0.9688
vt 0.8372 0.6937
vt 0.7881 0.6937
vt 0.7833 0.9722
vt 0.7840 0.6937
vt 0.7542 0.0046
vt 0.3836 0.0053
vt 0.3836 0.0046
vt 0.7704 0.6937
vt 0.7747 0.6939
vt 0.3891 0.9143
vt 0.3836 0.6969
vt 0.3891 0.6969
vt 0.8748 0.0051
vt 0.7630 0.0055
vt 0.7628 0.0046
vt 0.5585 0.7345
vt 0.5566 0.6978
vt 0.5585 0.6969
vt 0.7967 0.6937
vt 0.8015 0.9722
vt 0.7967 0.9722
vt 0.5374 0.6969
vt 0.5333 0.7352
vt 0.5328 0.6970
vt 0.5242 0.7397
vt 0.5201 0.7015
vt 0.5242 0.6969
vt 0.8241 0.6937
vt 0.8282 0.9614
vt 0.8234 0.9614
vt 0.5480 0.6978
vt 0.5461 0.7345
vt 0.5461 0.6969
vt 0.8836 0.6845
vt 0.9957 0.6831
vt 0.9956 0.6840
vt 0.8625 0.9627
vt 0.8667 0.6937
vt 0.8667 0.9627
vt 0.8107 0.9614
vt 0.8148 0.6937
vt 0.8148 0.9614
vt 0.5103 0.6969
vt 0.5110 0.9230
vt 0.5103 0.9230
vt 0.3749 0.0046
vt 0.0043 0.0056
vt 0.0043 0.0046
vt 0.8539 0.6937
vt 0.8497 0.9627
vt 0.8497 0.6937
vt 0.4020 0.9230
vt 0.3977 0.6969
vt 0.4020 0.6969
vt 0.8749 0.0060
vt 0.7630 0.6840
vt 0.8837 0.6836
vt 0.9957 0.0046
vt 0.7542 0.0053
vt 0.3836 0.6877
vt 0.3749 0.0056
vt 0.0043 0.6892
vt 0.4328 0.6969
vt 0.4260 0.8355
vt 0.4260 0.6969
vt 0.4174 0.6969
vt 0.4106 0.8355
vt 0.4106 0.6969
vt 0.4931 0.6969
vt 0.5016 0.8170
vt 0.4931 0.8170
vt 0.4845 0.8170
vt 0.4759 0.6970
vt 0.4845 0.6969
vt 0.4673 0.8171
vt 0.4587 0.6969
vt 0.4673 0.6969
vt 0.4415 0.8171
vt 0.4501 0.6969
vt 0.4501 0.8171
vt 0.7708 0.9952
vt 0.8411 0.9688
vt 0.7881 0.9722
vt 0.3836 0.9143
vt 0.5566 0.7354
vt 0.8008 0.6937
vt 0.5374 0.7397
vt 0.5196 0.7397
vt 0.8282 0.6937
vt 0.5480 0.7354
vt 0.8625 0.6937
vt 0.8101 0.6937
vt 0.5110 0.6969
vt 0.8539 0.9627
vt 0.3977 0.9230
vt 0.8749 0.6845
vt 0.8837 0.0051
vt 0.7542 0.6877
vt 0.3749 0.6892
vt 0.4328 0.8355
vt 0.4174 0.8355
vt 0.5016 0.6970
vt 0.4759 0.8170
vt 0.4587 0.8171
vt 0.4415 0.6969
vn 0.0000 0.0800 -0.9968
vn -0.9473 0.0256 -0.3193
vn 0.0244 -0.9971 -0.0718
vn 0.0000 -0.0800 0.9968
vn 0.9473 0.0256 -0.3193
vn 0.0000 -0.8977 0.4405
vn -0.3212 0.0000 0.9470
vn 0.3001 0.3569 -0.8846
vn -0.0244 -0.9971 -0.0718
vn -0.9934 -0.1078 -0.0390
vn 0.9894 -0.1301 0.0638
vn 0.0740 0.9731 -0.2182
vn -0.3001 0.3569 -0.8846
vn 0.3212 0.0000 0.9470
vn -0.9499 -0.0758 -0.3032
vn -0.0740 0.9731 -0.2182
vn 0.0000 -0.2426 -0.9701
vn 0.0000 0.2426 0.9701
vn 0.9499 -0.0758 -0.3032
vn 0.0000 0.9403 0.3402
vn -1.0000 0.0000 0.0000
vn 1.0000 0.0000 0.0000
vn 0.0000 -1.0000 0.0000
vn 0.0000 1.0000 0.0000
vn 0.0000 0.0000 1.0000
vn -0.9894 -0.1301 0.0638
vn 0.9934 -0.1078 -0.0390
s off
f 17/1/1 6/2/1 10/3/1
f 17/4/2 4/5/2 5/6/2
f 16/7/3 5/8/3 4/9/3
f 18/10/4 4/11/4 9/12/4
f 10/3/5 1/13/5 18/14/5
f 14/15/6 5/16/6 24/17/6
f 16/18/7 3/19/7 27/20/7
f 28/21/8 5/22/8 26/23/8
f 11/24/9 6/25/9 19/26/9
f 15/27/10 5/28/10 7/29/10
f 25/30/11 6/31/11 14/32/11
f 27/33/12 7/34/12 28/35/12
f 20/36/13 6/37/13 8/38/13
f 21/39/14 1/40/14 11/41/14
f 22/42/15 7/43/15 3/44/15
f 21/45/16 8/46/16 2/47/16
f 12/48/17 7/49/17 13/50/17
f 22/51/18 2/52/18 23/53/18
f 12/54/19 2/55/19 8/56/19
f 15/57/20 8/58/20 25/59/20
f 4/60/21 31/61/21 3/19/21
f 2/62/22 29/63/22 1/40/22
f 1/64/23 32/65/23 4/11/23
f 3/66/24 30/67/24 2/52/24
f 40/68/25 34/69/25 39/70/25
f 36/71/25 37/72/25 35/73/25
f 39/74/22 44/75/22 40/76/22
f 38/77/21 41/78/21 37/79/21
f 42/80/23 40/81/23 44/82/23
f 39/83/24 41/84/24 43/85/24
f 17/1/1 5/86/1 6/2/1
f 17/4/2 9/87/2 4/5/2
f 16/7/3 26/88/3 5/8/3
f 18/10/4 1/64/4 4/11/4
f 10/3/5 6/2/5 1/13/5
f 14/15/6 6/89/6 5/16/6
f 16/18/7 4/60/7 3/19/7
f 28/21/8 7/90/8 5/22/8
f 11/24/9 1/91/9 6/25/9
f 15/27/26 24/92/26 5/28/26
f 25/30/27 8/93/27 6/31/27
f 27/33/12 3/94/12 7/34/12
f 20/36/13 19/95/13 6/37/13
f 21/39/14 2/62/14 1/40/14
f 22/42/15 13/96/15 7/43/15
f 21/45/16 20/97/16 8/46/16
f 12/48/17 8/98/17 7/49/17
f 22/51/18 3/66/18 2/52/18
f 12/54/19 23/99/19 2/55/19
f 15/57/20 7/100/20 8/58/20
f 4/60/21 32/101/21 31/61/21
f 2/62/22 30/102/22 29/63/22
f 1/64/23 29/103/23 32/65/23
f 3/66/24 31/104/24 30/67/24
f 40/68/25 33/105/25 34/69/25
f 36/71/25 38/106/25 37/72/25
f 39/74/22 43/107/22 44/75/22
f 38/77/21 42/108/21 41/78/21
f 42/80/23 38/109/23 40/81/23
f 39/83/24 37/110/24 41/84/24
